<ttFont>
          <CharString index="0">
            102 238 rmoveto
            124 86 100 108 53 53 -21 -55 58 vhcurveto
            -276 13 callgsubr
            -114 -68 90 132 hvcurveto
            -32 hmoveto
            -162 86 -88 126 70 63 41 45 43 vhcurveto
            2 hlineto
            return
          </CharString>
          <CharString index="1">
            rmoveto
            47 132 28 80 24 68 24 82 rlinecurve
            4 hlineto
            24 -82 24 -68 28 -80 46 -132 rcurveline
            92 -264 rmoveto
            34 hlineto
            -236 660 -63 callgsubr
            -236 -660 rlineto
            32 hlineto
            83 236 rlineto
            269 hlineto
            endchar
          </CharString>
          <CharString index="2">
            rmoveto
            -104 callgsubr
          </CharString>
          <CharString index="3">
            -346 hlineto
            -79 -70 -54 -37 -72 hhcurveto
            -101 -43 55 113 hvcurveto
            294 -30 -298 vlineto
            -131 57 -61 117 78 61 46 62 53 vhcurveto
            4 hlineto
            return
          </CharString>
          <CharString index="4">
            4 -74 rlineto
            26 310 hlineto
            96 -49 84 -127 -86 -84 -46 -26 -34 vhcurveto
            16 -24 rlineto
            28 37 73 40 76 hhcurveto
            116 32 -80 -84 hvcurveto
            return
          </CharString>
          <CharString index="5">
            rmoveto
            -98 callsubr
            -48 6 30 -68 80 hhcurveto
            return
          </CharString>
          <CharString index="6">
            92 246 rmoveto
            -204 104 -54 104 104 104 54 204 vhcurveto
            414 -30 -406 vlineto
            -182 -84 -54 -94 -92 -84 54 182 vhcurveto
            406 -32 vlineto
            return
          </CharString>
          <CharString index="7">
            32 vstem
            80 88 rmoveto
            -58 52 76 -42 102 hhcurveto
            130 86 74 100 102 -72 39 -78 33 hvcurveto
            -102 46 rlineto
            -51 21 -75 31 82 vvcurveto
            76 66 50 98 72 58 -28 -42 40 vhcurveto
            20 22 rlineto
            41 -40 -66 37 -84 hhcurveto
            -112 -84 -64 -94 -98 84 -39 60 -25 hvcurveto
            102 -46 rlineto
            71 -30 61 -28 -88 vvcurveto
            -84 -72 -58 -112 -84 -74 36 56 -50 vhcurveto
            return
          </CharString>
          <CharString index="8">
            18 14 12 20 20 -14 12 -18 -18 -14 -12 -20 -20 14 -12 18 hvcurveto
            return
          </CharString>
          <CharString index="9">
            80 30 68 48 -28 callsubr
            -44 -6 -28 -46 -56 hhcurveto
            -56 -28 46 44 -6 -22 callgsubr
            return
          </CharString>
          <CharString index="10">
            -4 -56 rlineto
            -2 hlineto
            42 -49 -49 26 64 callgsubr
            -98 -154 hvcurveto
            return
          </CharString>
          <CharString index="11">
            120 -97 rmoveto
            37 21 38 62 33 vhcurveto
            -7 23 28 -2 22 hhcurveto
            121 hlineto
            88 43 -19 -57 -64 -83 -68 -139 -126 -60 48 61 hvcurveto
            -32 4 rmoveto
            -83 72 -58 152 152 96 82 80 76 -50 30 -121 vhcurveto
            -123 hlineto
            return
          </CharString>
          <CharString index="12">
            284 hmoveto
            32 245 hlineto
            228 415 -19 callgsubr
            -120 -225 -29 -52 -29 -52 -32 -53 rlinecurve
            -4 hlineto
            -31 53 -26 52 -31 51 -124 226 rcurveline
            -32 hlineto
            228 -415 rlineto
            return
          </CharString>
          <CharString index="13">
            rmoveto
            20 14 16 20 20 -14 16 -20 -20 -14 -16 -20 -20 14 -16 20 hvcurveto
            172 hmoveto
            20 14 16 20 20 -14 16 -20 -20 -14 -16 -20 -20 14 -16 20 hvcurveto
            endchar
          </CharString>
          <CharString index="14">
            vstem
            142 hmoveto
            42 hlineto
            80 310 14 46 9 46 11 46 rlinecurve
            4 hlineto
            13 -46 9 -44 12 -46 82 -312 rcurveline
            42 hlineto
            128 478 rlineto
            -32 hlineto
            -82 -322 -10 -44 -11 -40 -11 -42 rlinecurve
            -4 hlineto
            -11 42 -11 40 -11 44 -83 322 rcurveline
            -42 hlineto
            -83 -322 -11 -44 -11 -40 -11 -42 rlinecurve
            -4 hlineto
            -9 42 -11 40 -11 44 -83 322 rcurveline
            -34 hlineto
            return
          </CharString>
          <CharString index="15">
            96 hmoveto
            30 433 hlineto
            62 -3 56 -1 63 vhcurveto
            2 hlineto
            73 -128 274 -486 rlineto
            33 660 -30 -429 hlineto
            -62 3 -60 1 -63 vhcurveto
            -2 hlineto
            -73 128 -274 486 rlineto
            -33 hlineto
            return
          </CharString>
          <CharString index="16">
            rmoveto
            30 21 27 43 19 vhcurveto
            55 -17 57 -11 -49 vvcurveto
            -35 -44 -24 -44 -49 -39 27 33 vhcurveto
            hintmask 11011000
            -75 callsubr
            hintmask 11100100
            -65 callsubr
            hintmask 11011000
            -71 callgsubr
            hintmask 11100100
            -36 -17 -32 -26 -41 vvcurveto
            endchar
          </CharString>
          <CharString index="17">
            232 176 rmoveto
            -112 38 -76 127 44 58 12 18 43 vhcurveto
            -10 24 rlineto
            -16 -39 -41 -10 -53 hhcurveto
            -111 -26 60 96 hvcurveto
            278 262 28 -262 140 -26 vlineto
            -4 -140 -148 -4 rlineto
            -24 148 vlineto
            return
          </CharString>
          <CharString index="18">
            vstem
            74 332 rmoveto
            -208 111 -136 162 86 58 36 58 50 vhcurveto
            -20 20 rlineto
            -56 -50 -52 -28 -70 hhcurveto
            -148 -93 124 190 190 93 120 152 62 50 -28 -42 36 hvcurveto
            20 22 rlineto
            40 -34 -58 38 -76 hhcurveto
            -168 -111 76 callsubr
            return
          </CharString>
          <CharString index="19">
            78 102 46 callgsubr
            -102 -38 callsubr
            -94 134 -63 callgsubr
            return
          </CharString>
          <CharString index="20">
            vstem
            90 127 callgsubr
            110 -92 148 76 60 32 46 48 vhcurveto
            -18 22 rlineto
            -42 -44 -55 -30 -67 hhcurveto
            -136 -90 102 callgsubr
            92 92 134 62 48 -28 -40 41 hvcurveto
            20 22 rlineto
            38 -39 -51 36 -81 hhcurveto
            -142 -116 -92 -160 hvcurveto
            return
          </CharString>
          <CharString index="21">
            rmoveto
            78 74 46 callgsubr
            -74 -22 callsubr
            -96 104 -63 callgsubr
            -96 -104 rlineto
            return
          </CharString>
          <CharString index="22">
            rmoveto
            -33 26 33 -31 63 hhcurveto
            66 50 38 64 66 -48 36 -66 -24 -22 -6 -12 -20 hvcurveto
            14 98 rlineto
            144 28 -170 hlineto
            -18 -150 20 -14 rlineto
            18 22 22 12 30 hhcurveto
            54 32 -28 -48 -46 -34 -30 -50 -49 -27 24 32 -24 hvcurveto
            return
          </CharString>
          <CharString index="23">
            170 hmoveto
            30 306 hlineto
            112 70 74 42 83 hhcurveto
            38 17 -5 -13 36 hvcurveto
            10 28 rlineto
            16 -31 -35 4 -31 hhcurveto
            -98 -79 -56 -76 -52 hvcurveto
            -2 hlineto
            return
          </CharString>
          <CharString index="24">
            8 -18 -20 4 -26 hhcurveto
            -96 -78 -74 -96 -58 26 -40 30 -26 hvcurveto
            -4 vlineto
            -38 -26 -20 -34 -30 vvcurveto
            -40 26 -25 24 -11 vhcurveto
            -4 vlineto
            return
          </CharString>
          <CharString index="25">
            221 26 -171 hlineto
            87 76 66 50 61 vvcurveto
            64 -38 35 -66 -43 -39 -26 -32 -24 vhcurveto
            22 -16 rlineto
            28 20 30 20 34 hhcurveto
            47 27 -27 -45 -53 -52 -41 -121 -100 hvcurveto
            return
          </CharString>
          <CharString index="26">
            rmoveto
            -49 -43 33 63 -7 hvcurveto
            35 36 29 11 34 hhcurveto
            55 21 -30 -40 -42 -28 -30 -48 hvcurveto
            98 272 rmoveto
            14 -22 -22 12 -36 hhcurveto
            -78 -68 -50 -134 -90 62 -50 64 64 44 44 54 52 -31 44 -73 -38 -34 -16 -24 -30 hvcurveto
            105 4 54 39 58 hhcurveto
            28 22 -11 -13 18 hvcurveto
            endchar
          </CharString>
          <CharString index="27">
            rmoveto
            34 12 40 18 44 vvcurveto
            48 -48 18 -52 2 vhcurveto
            -2 -24 rlineto
            48 -2 24 -14 -32 vvcurveto
            -24 -22 -14 -30 -10 vhcurveto
            endchar
          </CharString>
          <CharString index="28">
            rmoveto
            -78 -74 rlineto
            -4 hlineto
            -78 74 -19 callgsubr
            96 -104 -38 callsubr
            96 104 rlineto
            endchar
          </CharString>
          <CharString index="29">
            rmoveto
            -75 callgsubr
            -28 hlineto
            return
          </CharString>
          <CharString index="30">
            110 10 68 61 105 vvcurveto
            122 -82 48 -130 vhcurveto
            -182 -660 32 312 148 hlineto
            186 -312 rlineto
            return
          </CharString>
          <CharString index="31">
            -12 -66 callgsubr
            return
          </CharString>
          <CharString index="32">
            114 90 rmoveto
            -52 14 -48 18 37 vvcurveto
            30 28 23 46 50 26 -23 -30 -26 -14 -22 -36 -21 vhcurveto
            return
          </CharString>
          <CharString index="33">
            -65 callgsubr
            -125 384 rmoveto
            47 132 28 80 24 68 24 82 rlinecurve
            4 hlineto
            24 -82 24 -68 28 -80 46 -132 rcurveline
            126 -264 rmoveto
            -236 660 -63 callgsubr
            -236 -660 rlineto
            32 hlineto
            83 236 rlineto
            269 hlineto
            82 -236 rlineto
            endchar
          </CharString>
          <CharString index="34">
            rmoveto
            78 54 59 105 104 -54 56 -78 -78 -54 -56 -104 -105 54 -59 78 hvcurveto
            26 vmoveto
            -58 -44 51 87 89 44 45 58 58 44 -45 -89 -87 -44 -51 -58 hvcurveto
            endchar
          </CharString>
          <CharString index="35">
            34 vstem
            100 hmoveto
            148 hlineto
            204 92 136 196 196 -92 132 -204 hvcurveto
            -148 hlineto
            32 -632 rmoveto
            604 112 vlineto
            188 78 -126 -174 -174 -78 -130 -188 hvcurveto
            return
          </CharString>
          <CharString index="36">
            208 273 rmoveto
            -78 -64 58 82 82 64 60 78 78 64 -60 -82 -82 -64 -58 -78 hvcurveto
            return
          </CharString>
          <CharString index="37">
            rmoveto
            18 16 14 22 20 -16 14 -18 -18 -16 -14 -20 -22 16 116 callgsubr
          </CharString>
          <CharString index="38">
            74 32 60 42 -28 callsubr
            -36 -6 -26 -40 -54 hhcurveto
            -54 -26 40 36 -6 -22 callgsubr
            -42 6 32 -60 74 hhcurveto
            endchar
          </CharString>
          <CharString index="39">
            hstem
            92 32 68 64 88 64 70 30 vstem
            -101 callsubr
            return
          </CharString>
          <CharString index="40">
            4 -74 rlineto
            26 478 -26 hlineto
            return
          </CharString>
          <CharString index="41">
            rmoveto
            34 10 40 18 44 vvcurveto
            48 -48 16 -52 2 vhcurveto
            -4 -26 rlineto
            48 -2 26 -10 -32 vvcurveto
            -24 -24 -12 -30 -8 vhcurveto
            return
          </CharString>
          <CharString index="42">
            -144 -90 rmoveto
            -45 46 -41 72 65 53 36 50 41 -30 23 -35 14 vhcurveto
            4 vlineto
            return
          </CharString>
          <CharString index="43">
            rmoveto
            -114 -84 102 callgsubr
            84 92 114 114 84 -92 -132 -132 -84 -90 -114 hvcurveto
            return
          </CharString>
          <CharString index="44">
            12 callsubr
            88 -48 rmoveto
            26 hlineto
            90 110 rlineto
            -38 hlineto
            endchar
          </CharString>
          <CharString index="45">
            -36 -8 -24 -36 -52 hhcurveto
            -52 -24 36 36 -8 -22 callgsubr
            -42 6 34 -56 70 hhcurveto
            return
          </CharString>
          <CharString index="46">
            -121 -107 -98 -154 hvcurveto
            32 hmoveto
            124 86 100 108 53 53 -21 -55 58 vhcurveto
            -276 13 callgsubr
            -114 -68 90 132 hvcurveto
            return
          </CharString>
          <CharString index="47">
            -36 -18 46 -48 hhcurveto
            -47 -19 -40 -32 -2 hvcurveto
            endchar
          </CharString>
          <CharString index="48">
            -33 22 48 -31 50 hhcurveto
            64 46 28 60 44 -34 26 -40 8 hvcurveto
            return
          </CharString>
          <CharString index="49">
            rmoveto
            71 85 53 66 -15 callsubr
            -4 -68 rlineto
            -83 vlineto
            77 hmoveto
            -49 193 -20 hlineto
            -172 -202 rlineto
            -15 164 -83 28 83 49 vlineto
            endchar
          </CharString>
          <CharString index="50">
            rmoveto
            -44 hlineto
            -94 66 callsubr
            return
          </CharString>
          <CharString index="51">
            rmoveto
            42 20 30 44 46 vvcurveto
            36 -16 18 -24 -16 -16 -12 -22 -20 16 -8 16 3 4 0 1 3 vhcurveto
            -1 -38 -22 -29 -31 -14 rrcurveto
            endchar
          </CharString>
          <CharString index="52">
            72 hmoveto
            461 28 -424 hlineto
            417 614 rlineto
            19 -419 -27 381 vlineto
            -416 -615 rlineto
            return
          </CharString>
          <CharString index="53">
            rmoveto
            -95 38 -67 65 -58 vhcurveto
            19 20 rlineto
            -64 58 -23 61 81 vvcurveto
            81 23 61 64 58 vhcurveto
            -19 20 rlineto
            -65 -58 -38 -67 -95 vvcurveto
            endchar
          </CharString>
          <CharString index="54">
            4 -96 rlineto
            26 458 hlineto
            38 10 50 -42 callgsubr
          </CharString>
          <CharString index="55">
            rmoveto
            292 138 vlineto
            122 68 -38 -104 -102 -68 -48 -122 hvcurveto
            return
          </CharString>
          <CharString index="56">
            28 310 28 266 28 return
          </CharString>
          <CharString index="57">
            76 38 -21 -43 -44 -32 -18 -46 -42 -36 24 32 -20 hvcurveto
            return
          </CharString>
          <CharString index="58">
            -107 callgsubr
            -282 306 -44 callgsubr
            return
          </CharString>
          <CharString index="59">
            10 callsubr
            177 418 rmoveto
            79 52 60 66 -17 callgsubr
            -33 hmoveto
            -107 55 -59 84 45 38 23 26 28 vhcurveto
            1 hlineto
            4 -41 rlineto
            27 317 -28 hlineto
            -2 -30 rlineto
            -2 hlineto
            24 -32 -29 14 -40 hhcurveto
            -80 -69 -64 -103 hvcurveto
            endchar
          </CharString>
          <CharString index="60">
            hstem
            -34 callgsubr
            vstem
            return
          </CharString>
          <CharString index="61">
            rmoveto
            -42 44 68 -48 112 hhcurveto
            120 94 70 110 92 -82 60 -90 16 hvcurveto
            4 vlineto
            hintmask 11111000
            82 23 66 51 86 vvcurveto
            96 -86 56 -106 -82 -66 -36 -42 -46 vhcurveto
            20 -22 rlineto
            40 40 66 32 68 hhcurveto
            94 66 -50 -76 -80 -67 -66 -173 hvcurveto
            -30 vlineto
            hintmask 11110100
            183 81 -64 -92 -90 -78 -60 -102 -102 -62 42 42 -42 hvcurveto
            endchar
          </CharString>
          <CharString index="62">
            44 20 48 38 2 hvcurveto
            -22 hlineto
            hintmask 11111111
            -72 callgsubr
            return
          </CharString>
          <CharString index="63">
            24 hlineto
            35 4 12 21 22 hhcurveto
            return
          </CharString>
          <CharString index="64">
            vstem
            156 hmoveto
            382 28 -352 632 -30 hlineto
            return
          </CharString>
          <CharString index="65">
            -31 callsubr
            -80 36 rmoveto
            return
          </CharString>
          <CharString index="66">
            28 5 -5 callsubr
            return
          </CharString>
          <CharString index="67">
            rmoveto
            66 42 46 86 82 -42 48 -66 -66 -42 -48 -82 -86 42 -46 66 hvcurveto
            26 vmoveto
            -46 -32 36 70 66 32 38 46 46 32 -38 -66 -70 -32 -36 -46 hvcurveto
            return
          </CharString>
          <CharString index="68">
            26 26 20 38 38 -26 20 -26 -26 -26 -20 -38 return
          </CharString>
          <CharString index="69">
            rlineto
            28 hlineto
            return
          </CharString>
          <CharString index="70">
            -50 callgsubr
            -45 30 return
          </CharString>
          <CharString index="71">
            rmoveto
            80 26 28 10 34 58 48 -92 76 hhcurveto
            42 44 24 84 28 hvcurveto
            -24 10 rlineto
            -82 -26 -28 -8 -34 -58 -48 92 -76 hhcurveto
            -42 -44 -24 -86 -28 hvcurveto
            return
          </CharString>
          <CharString index="72">
            32 vstem
            95 hmoveto
            31 495 hlineto
            41 -3 46 -1 41 vhcurveto
            2 hlineto
            39 -110 124 -332 rlineto
            27 hlineto
            123 332 36 110 rlineto
            3 hlineto
            -1 -41 -2 -46 -41 vvcurveto
            -495 32 660 -46 vlineto
            -116 -318 -40 -120 rlineto
            -4 hlineto
            -42 120 -116 318 rlineto
            -46 hlineto
            return
          </CharString>
          <CharString index="73">
            rmoveto
            -40 46 61 -46 117 hhcurveto
            115 111 76 136 140 -94 62 -126 -62 -41 -15 -21 -43 hvcurveto
            22 246 rlineto
            310 28 -338 hlineto
            -24 -296 26 -16 rlineto
            26 47 39 18 62 hhcurveto
            118 72 -66 -108 -108 -89 -74 -103 -107 -55 40 40 -44 hvcurveto
            endchar
          </CharString>
          <CharString index="74">
            -12 -25 callgsubr
            return
          </CharString>
          <CharString index="75">
            -12 -41 callsubr
            return
          </CharString>
          <CharString index="76">
            -23 callgsubr
            76 70 -15 callsubr
            76 -70 -38 callsubr
            -92 98 -63 callgsubr
            return
          </CharString>
          <CharString index="77">
            32 vstem
            92 hmoveto
            32 338 352 -338 32 660 -32 -294 -352 294 -32 hlineto
            return
          </CharString>
          <CharString index="78">
            -12 57 callsubr
            return
          </CharString>
          <CharString index="79">
            6 -22 callgsubr
            return
          </CharString>
          <CharString index="80">
            278 704 -99 callgsubr
            return
          </CharString>
          <CharString index="81">
            142 102 136 208 130 -40 100 -64 57 hvcurveto
            return
          </CharString>
          <CharString index="82">
            -37 callsubr
            hstemhm
            return
          </CharString>
          <CharString index="83">
            28 446 28 return
          </CharString>
          <CharString index="84">
            rmoveto
            -202 106 -132 154 154 106 132 202 201 -106 129 -154 -154 -106 -129 -201 vhcurveto
            30 hmoveto
            183 92 121 138 138 92 -121 -183 -184 -92 -124 -138 -138 -92 124 184 vhcurveto
            return
          </CharString>
          <CharString index="85">
            rlineto
            30 hlineto
            return
          </CharString>
          <CharString index="86">
            32 callgsubr
            -685 60 return
          </CharString>
          <CharString index="87">
            255 30 30 65 callgsubr
            return
          </CharString>
          <CharString index="88">
            252 28 278 27 hstem
            150 33 234 33 vstem
            150 418 rmoveto
            -105 69 -61 81 82 68 61 105 106 -68 61 -82 -81 -69 -61 -106 vhcurveto
            33 hmoveto
            82 49 58 68 68 49 -58 -82 -82 -49 -56 -68 -68 -49 56 82 vhcurveto
            endchar
          </CharString>
          <CharString index="89">
            -120 -65 callgsubr
            return
          </CharString>
          <CharString index="90">
            20 callsubr
            104 callsubr
            return
          </CharString>
          <CharString index="91">
            285 11 callsubr
            return
          </CharString>
          <CharString index="92">
            rlineto
            4 hlineto
            return
          </CharString>
          <CharString index="93">
            -2 callgsubr
            -5 callgsubr
            return
          </CharString>
          <CharString index="94">
            -84 112 -63 callgsubr
            return
          </CharString>
          <CharString index="95">
            4 -74 rlineto
            26 722 -30 -202 hlineto
            50 callsubr
            return
          </CharString>
          <CharString index="96">
            802 rmoveto
            -42 hlineto
            94 -96 -38 callsubr
            36 -104 rmoveto
            -88 callgsubr
            -152 57 callgsubr
          </CharString>
          <CharString index="97">
            125 105 92 158 96 -38 71 -56 42 hvcurveto
            return
          </CharString>
          <CharString index="98">
            rmoveto
            -40 hlineto
            108 -104 -38 callsubr
            44 -98 rmoveto
            -99 callsubr
            -152 55 callgsubr
          </CharString>
          <CharString index="99">
            70 238 rmoveto
            -162 86 -88 126 70 63 41 45 43 vhcurveto
            2 hlineto
            return
          </CharString>
          <CharString index="100">
            -20 callsubr
            hintmask 01100000
            -15 315 rmoveto
            return
          </CharString>
          <CharString index="101">
            125 125 return
          </CharString>
          <CharString index="102">
            -21 478 -20 return
          </CharString>
          <CharString index="103">
            24 188 24 return
          </CharString>
          <CharString index="104">
            rmoveto
            6 156 rlineto
            48 -30 vlineto
            2 -204 rlineto
            endchar
          </CharString>
          <CharString index="105">
            576 26 hstem
            184 26 180 12 callgsubr
            endchar
          </CharString>
          <CharString index="106">
            557 28 hstem
            190 32 199 32 vstem
            190 260 rmoveto
            32 233 hlineto
            43 43 30 21 42 hhcurveto
            59 25 -32 -66 hvcurveto
            -199 32 203 vlineto
            82 -36 40 -74 -49 -36 -27 return
          </CharString>
          <CharString index="107">
            hstem
            443 32 vstem
            98 98 rmoveto
            -73 36 69 -37 75 hhcurveto
            149 48 95 118 hvcurveto
            460 -323 -27 291 -430 vlineto
            -124 -49 -63 -115 -57 -56 31 67 -38 vhcurveto
            return
          </CharString>
          <CharString index="108">
            -204 84 108 -66 callgsubr
            return
          </CharString>
          <CharString index="109">
            -23 callgsubr
            -88 callsubr
            14 -910 -105 callsubr
          </CharString>
          <CharString index="110">
            30 vstem
            130 hmoveto
            30 138 hlineto
            148 138 220 -276 rlineto
            36 hlineto
            -232 294 198 184 rlineto
            -40 hlineto
            -326 -302 rlineto
            -4 546 -30 hlineto
            return
          </CharString>
          <CharString index="111">
            vstem
            122 hmoveto
            32 234 hlineto
            145 160 231 -394 rlineto
            38 hlineto
            -245 418 216 242 rlineto
            -39 hlineto
            -344 -380 rlineto
            -2 380 -32 hlineto
            return
          </CharString>
          <CharString index="112">
            98 62 rmoveto
            -38 hlineto
            90 -110 117 callgsubr
          </CharString>
          <CharString index="113">
            -28 6 -30 12 32 vvcurveto
            28 38 16 56 8 vhcurveto
            -6 26 rlineto
            -60 -8 -58 -24 -50 vvcurveto
            return
          </CharString>
          <CharString index="114">
            rmoveto
            78 104 rlineto
            -38 hlineto
            -68 -104 rlineto
            140 hmoveto
            28 hlineto
            78 104 rlineto
            -38 hlineto
            endchar
          </CharString>
          <CharString index="115">
            rmoveto
            20 16 -126 162 126 160 -20 18 -138 -164 rlineto
            -28 vlineto
            return
          </CharString>
          <CharString index="116">
            316 28 hstem
            98 404 vstem
            98 316 rmoveto
            32 callsubr
            endchar
          </CharString>
          <CharString index="117">
            252 28 277 28 hstem
            144 33 217 32 vstem
            return
          </CharString>
          <CharString index="118">
            30 -47 callsubr
            return
          </CharString>
          <CharString index="119">
            -44 callgsubr
            68 -80 -38 callsubr
            -13 callsubr
            return
          </CharString>
          <CharString index="120">
            -20 callsubr
            hintmask 01100000
            285 104 callsubr
            hlineto
            hintmask 11100000
            87 callgsubr
            return
          </CharString>
          <CharString index="121">
            -24 82 vlineto
            -96 -549 -89 callgsubr
            return
          </CharString>
          <CharString index="122">
            rmoveto
            30 hlineto
            -94 104 rlineto
            -44 hlineto
            endchar
          </CharString>
          <CharString index="123">
            rmoveto
            22 18 16 26 26 -18 16 -22 -22 -18 -16 -31 callgsubr
            -16 22 hvcurveto
            return
          </CharString>
          <CharString index="124">
            -35 callgsubr
            -12 -20 hstemhm
            110 return
          </CharString>
          <CharString index="125">
            278 22 callgsubr
            return
          </CharString>
          <CharString index="126">
            -88 callsubr
            endchar
          </CharString>
          <CharString index="127">
            -47 callsubr
            285 return
          </CharString>
          <CharString index="128">
            -151 rmoveto
            71 85 53 66 -15 callsubr
            -4 -68 rlineto
            -83 vlineto
            28 193 rmoveto
            -20 hlineto
            -172 -202 rlineto
            -15 164 vlineto
            return
          </CharString>
          <CharString index="129">
            -30 -685 hlineto
            hintmask 11000000
            -30 685 -30 -685 -270 hlineto
            endchar
          </CharString>
          <CharString index="130">
            30 4 16 16 22 hhcurveto
            return
          </CharString>
          <CharString index="131">
            26 142 26 104 26 hstem
            186 28 176 30 vstem
            314 return
          </CharString>
          <CharString index="132">
            -25 callsubr
            285 30 hintmask 01100000
            -5 callgsubr
            84 callsubr
            hlineto
            hintmask 10100000
            101 callsubr
            return
          </CharString>
          <CharString index="133">
            -12 44 callsubr
            return
          </CharString>
          <CharString index="134">
            43 callsubr
            -15 315 rmoveto
            132 callsubr
            return
          </CharString>
          <CharString index="135">
            164 176 206 rrcurveto
            18 -450 -28 408 vlineto
            -156 -188 -66 -158 -10 -266 rrcurveto
            endchar
          </CharString>
          <CharString index="136">
            -26 hlineto
            -44 6 28 -52 80 hhcurveto
            -118 128 rmoveto
            24 hlineto
            return
          </CharString>
          <CharString index="137">
            24 151 42 hstem
            344 28 vstem
            220 return
          </CharString>
          <CharString index="138">
            26 126 24 122 26 return
          </CharString>
          <CharString index="139">
            404 28 -404 hlineto
            return
          </CharString>
          <CharString index="140">
            332 710 rmoveto
            -94 104 rlineto
            -44 hlineto
            108 -104 rlineto
            return
          </CharString>
          <CharString index="141">
            80 callgsubr
            hintmask 10100000
            103 callsubr
            670 return
          </CharString>
          <CharString index="142">
            334 -44 callgsubr
            return
          </CharString>
          <CharString index="143">
            -61 callgsubr
            52 26 return
          </CharString>
          <CharString index="144">
            83 callsubr
            hstemhm
            170 30 return
          </CharString>
          <CharString index="145">
            -52 -33 -30 -45 -37 vvcurveto
            return
          </CharString>
          <CharString index="146">
            hstemhm
            96 32 342 30 return
          </CharString>
          <CharString index="147">
            hstemhm
            70 32 358 30 return
          </CharString>
          <CharString index="148">
            70 34 56 42 6 hvcurveto
            return
          </CharString>
          <CharString index="149">
            -300 hlineto
            endchar
          </CharString>
          <CharString index="150">
            -16 callgsubr
            hintmask 01100000
            return
          </CharString>
          <CharString index="151">
            128 callsubr
            324 30 return
          </CharString>
          <CharString index="152">
            230 40 hstem
            142 316 vstem
            142 230 rmoveto
            316 40 -316 hlineto
            endchar
          </CharString>
          <CharString index="153">
            -63 callgsubr
            endchar
          </CharString>
          <CharString index="154">
            -66 callgsubr
            232 -20 hstemhm
            70 32 return
          </CharString>
          <CharString index="155">
            -500 rmoveto
            50 vlineto
            -270 450 -19 callgsubr
            return
          </CharString>
          <CharString index="156">
            -36 -6 -28 -34 -54 hhcurveto
            -54 -28 34 36 -6 hvcurveto
            return
          </CharString>
          <CharString index="157">
            2 -100 rlineto
            44 -53 -49 26 -62 hhcurveto
            return
          </CharString>
          <CharString index="158">
            -204 84 141 -21 return
          </CharString>
          <CharString index="159">
            21 92 callgsubr
            return
          </CharString>
          <CharString index="160">
            155 63 53 18 38 48 vhcurveto
            -16 22 rlineto
            -33 -40 -48 -17 -60 hhcurveto
            -146 -100 return
          </CharString>
          <CharString index="161">
            230 40 hstem
            80 440 vstem
            80 230 rmoveto
            440 40 -440 hlineto
            endchar
          </CharString>
          <CharString index="162">
            112 vlineto
            188 78 -126 -174 -174 -78 -130 -188 hvcurveto
            endchar
          </CharString>
          <CharString index="163">
            312 128 vlineto
            142 68 -36 -116 -114 -68 -46 -142 hvcurveto
            endchar
          </CharString>
          <CharString index="164">
            30 624 30 return
          </CharString>
          <CharString index="165">
            -24 callgsubr
            78 114 callsubr
            92 32 52 22 204 22 54 30 return
          </CharString>
          <CharString index="166">
            rmoveto
            2 hlineto
            470 250 rlineto
            4 vlineto
            -470 248 rlineto
            -2 hlineto
            endchar
          </CharString>
          <CharString index="167">
            -215 1030 hstem
            -15 30 570 30 vstem
            return
          </CharString>
          <CharString index="168">
            -21 312 28 292 28 return
          </CharString>
          <CharString index="169">
            -204 84 120 return
          </CharString>
          <CharString index="170">
            21 115 callgsubr
            return
          </CharString>
          <CharString index="171">
            -206 26 168 return
          </CharString>
          <CharString index="172">
            -285 670 -60 return
          </CharString>
          <CharString index="173">
            -104 -22 callsubr
            return
          </CharString>
          <CharString index="174">
            28 hstem
            84 32 132 104 132 32 vstem
            300 -12 rmoveto
            138 78 return
          </CharString>
          <CharString index="175">
            -34 callgsubr
            -36 callgsubr
            return
          </CharString>
          <CharString index="176">
            68 hstem
            268 64 vstem
            268 return
          </CharString>
          <CharString index="177">
            55 hstem
            300 28 vstem
            300 return
          </CharString>
          <CharString index="178">
            28 -12 -20 hstemhm
            70 32 return
          </CharString>
          <CharString index="179">
            26 180 26 return
          </CharString>
          <CharString index="180">
            26 273 24 -24 55 hstemhm
            160 28 return
          </CharString>
          <CharString index="181">
            270 -655 30 685 -300 hlineto
            return
          </CharString>
          <CharString index="182">
            -4 96 rlineto
            -26 hlineto
            return
          </CharString>
          <CharString index="183">
            -132 -208 hvcurveto
            return
          </CharString>
          <CharString index="184">
            -23 vlineto
            hintmask 11010000
            -35 -16 -49 -14 -63 -8 rrcurveto
            hintmask 10110000
            -22 140 return
          </CharString>
          <CharString index="185">
            28 240 28 340 28 hstem
            78 32 370 32 vstem
            280 return
          </CharString>
          <CharString index="186">
            hstem
            132 32 return
          </CharString>
          <CharString index="187">
            285 82 callsubr
            hintmask 11000000
            -5 callgsubr
            return
          </CharString>
          <CharString index="188">
            rmoveto
            -38 hlineto
            86 -108 -38 callsubr
            return
          </CharString>
          <CharString index="189">
            30 39 callgsubr
            return
          </CharString>
          <CharString index="190">
            -21 460 30 -12 -20 return
          </CharString>
          <CharString index="191">
            300 -685 30 return
          </CharString>
          <CharString index="192">
            -600 hlineto
            endchar
          </CharString>
          <CharString index="193">
            rmoveto
            hintmask 11000000
            30 1400 hlineto
            hintmask 11100000
            -30 hlineto
            endchar
          </CharString>
          <CharString index="194">
            -30 callgsubr
            hintmask 11000000
            255 104 callsubr
            return
          </CharString>
          <CharString index="195">
            4 54 rlineto
            2 hlineto
            -40 49 66 -26 49 hhcurveto
            119 105 return
          </CharString>
          <CharString index="196">
            -64 -34 -30 -32 -47 hhcurveto
            -50 -25 40 78 hvcurveto
            344 -30 return
          </CharString>
          <CharString index="197">
            44 30 40 30 36 vhcurveto
            478 -276 -28 246 vlineto
            return
          </CharString>
          <CharString index="198">
            -38 26 -20 26 return
          </CharString>
          <CharString index="199">
            -200 1000 hstemhm
            0 300 0 300 hintmask 11000000
            return
          </CharString>
          <CharString index="200">
            22 -22 60 hstemhm
            306 30 hintmask 10110000
            336 28 rmoveto
            return
          </CharString>
          <CharString index="201">
            22 116 22 hstem
            222 24 106 26 vstem
            300 return
          </CharString>
          <CharString index="202">
            hstem
            300 300 vstem
            300 -200 rmoveto
            300 return
          </CharString>
          <CharString index="203">
            1 callsubr
            -12 -20 return
          </CharString>
          <CharString index="204">
            498 rmoveto
            20 hlineto
            24 132 8 64 -63 callgsubr
            return
          </CharString>
          <CharString index="205">
            -78 -35 -78 -94 -44 vhcurveto
            -18 429 28 vlineto
            endchar
          </CharString>
          <CharString index="206">
            340 112 callgsubr
            return
          </CharString>
          <CharString index="207">
            -50 callgsubr
            -47 callsubr
            return
          </CharString>
          <CharString index="208">
            670 300 60 return
          </CharString>
          <CharString index="209">
            0 30 418 30 return
          </CharString>
          <CharString index="210">
            300 -670 30 return
          </CharString>
          <CharString index="211">
            -400 rmoveto
            30 return
          </CharString>
          <CharString index="212">
            18 33 hhcurveto
            78 29 -57 -77 -85 -48 -58 -69 -26 return
          </CharString>
          <CharString index="213">
            69 callgsubr
            -4 callgsubr
            return
          </CharString>
          <CharString index="214">
            153 28 rmoveto
            4 vlineto
            59 46 32 52 88 vvcurveto
            return
          </CharString>
          <CharString index="215">
            134 35 callsubr
            return
          </CharString>
          <CharString index="216">
            150 94 66 126 92 -62 54 -98 14 hvcurveto
            return
          </CharString>
          <CharString index="217">
            -47 -15 -46 -36 -2 hvcurveto
            endchar
          </CharString>
          <CharString index="218">
            -40 28 -20 50 -12 vhcurveto
            endchar
          </CharString>
          <CharString index="219">
            -37 callgsubr
            28 return
          </CharString>
          <CharString index="220">
            28 77 callgsubr
            return
          </CharString>
          <CharString index="221">
            28 30 28 hstemhm
            return
          </CharString>
          <CharString index="222">
            -330 hlineto
            endchar
          </CharString>
          <CharString index="223">
            -300 vlineto
            endchar
          </CharString>
          <CharString index="224">
            -250 1000 hstem
            286 28 vstem
            286 return
          </CharString>
          <CharString index="225">
            28 hstem
            444 31 vstem
            85 hmoveto
            426 28 return
          </CharString>
          <CharString index="226">
            128 68 -38 -90 -92 -58 -46 -144 hvcurveto
            return
          </CharString>
          <CharString index="227">
            vlineto
            201 94 rlineto
            30 vlineto
            -201 -94 rlineto
            return
          </CharString>
          <CharString index="228">
            vvcurveto
            -54 36 -26 44 20 26 10 12 14 vhcurveto
            return
          </CharString>
          <CharString index="229">
            rmoveto
            132 callgsubr
            return
          </CharString>
          <CharString index="230">
            285 rmoveto
            330 30 115 callsubr
          </CharString>
          <CharString index="231">
            rmoveto
            113 60 -113 hlineto
            return
          </CharString>
          <CharString index="232">
            rmoveto
            113 30 -113 hlineto
            return
          </CharString>
          <CharString index="233">
            63 -54.5 46 return
          </CharString>
          <CharString index="234">
            -20 hstem
            156 30 return
          </CharString>
          <CharString index="235">
            30 272 28 return
          </CharString>
          <CharString index="236">
            rmoveto
            300 30 -270 655 -30 hlineto
            return
          </CharString>
          <CharString index="237">
            284 hstem
            277.5 45 vstem
            return
          </CharString>
          <CharString index="238">
            -152 23 395 24 395 23 hstem
            return
          </CharString>
          <CharString index="239">
            300 685 -30 -655 -270 hlineto
            return
          </CharString>
          <CharString index="240">
            712 26 60 94 hstem
            190 26 vstem
            return
          </CharString>
          <CharString index="241">
            -16 callsubr
            285 return
          </CharString>
          <CharString index="242">
            vlineto
            -140 -15 -86 -124 -190 vvcurveto
            return
          </CharString>
          <CharString index="243">
            26 hstemhm
            70 32 return
          </CharString>
          <CharString index="244">
            46 568 46 return
          </CharString>
          <CharString index="245">
            30 150 30 return
          </CharString>
        <CharString name=".notdef">
          0 32 594 34 hstem
          84 38 354 40 vstem
          84 hmoveto
          432 660 -432 hlineto
          38 -586 rmoveto
          536 vlineto
          154 -270 rlineto
          48 hmoveto
          152 270 rlineto
          -536 vlineto
          -344 -42 rmoveto
          102 176 64 106 -15 callsubr
          62 -106 100 -176 rlineto
          -166 334 rmoveto
          -56 92 -94 168 rlineto
          302 hlineto
          -94 -168 -54 -92 rlineto
          endchar
        </CharString>
        <CharString name="A">
          -61 callgsubr
          hstem
          50 500 vstem
          175 264 -106 callsubr
        </CharString>
        <CharString name="AE">
          0 28 198 28 84 28 266 28 hstem
          322 32 vstem
          149 254 rmoveto
          63 140 36 82 36 76 34 78 rlinecurve
          4 -376 hlineto
          32 -226 rmoveto
          310 170 28 -170 266 224 28 -276 vlineto
          -302 -660 rlineto
          36 hlineto
          101 226 rlineto
          185 -226 266 28 hlineto
          endchar
        </CharString>
        <CharString name="Aacute">
          -61 callgsubr
          50 104 hstem
          50 500 98 callgsubr
          -123 -446 -106 callsubr
        </CharString>
        <CharString name="Abreve">
          36 callsubr
          hstem
          188 26 18 callgsubr
          -237 -550 -106 callsubr
        </CharString>
        <CharString name="Acircumflex">
          -61 callgsubr
          124 30 hstem
          50 500 vstem
          298 784 rmoveto
          4 hlineto
          78 -74 -22 callsubr
          -96 104 -63 callgsubr
          -96 66 callsubr
          -45 -446 -106 callsubr
        </CharString>
        <CharString name="Adieresis">
          -61 callgsubr
          68 64 -9 callgsubr
          376 728 rmoveto
          -99 callsubr
          -152 hmoveto
          -99 callsubr
          -49 -464 -106 callsubr
        </CharString>
        <CharString name="Agrave">
          -61 callgsubr
          50 104 hstem
          50 500 vstem
          33 callsubr
          -127 -446 -106 callsubr
        </CharString>
        <CharString name="Amacron">
          -61 callgsubr
          76 28 hstem
          50 500 vstem
          410 764 rmoveto
          -220 -28 220 hlineto
          -235 -472 -106 callsubr
        </CharString>
        <CharString name="Aogonek">
          -202 28 195 -60 callgsubr
          hstem
          448 30 vstem
          175 264 rmoveto
          47 132 28 80 24 68 24 82 rlinecurve
          4 hlineto
          24 -82 24 -68 28 -80 46 -132 rcurveline
          150 -424 122 callsubr
          42 32 48 40 30 hvcurveto
          -236 660 -63 callgsubr
          -236 -660 rlineto
          32 hlineto
          83 236 rlineto
          269 hlineto
          82 -236 rlineto
          2 hlineto
          -36 -26 -34 -48 -48 121 callsubr
          endchar
        </CharString>
        <CharString name="Aring">
          -61 callgsubr
          40 94 callsubr
          838 rmoveto
          28 24 -22 -36 -38 -24 -20 -28 -30 -24 20 38 36 24 22 30 hvcurveto
          -138 vmoveto
          42 36 32 48 48 -36 32 -42 -44 -34 -32 -48 -48 34 -32 44 hvcurveto
          -125 -436 -106 callsubr
        </CharString>
        <CharString name="Atilde">
          -61 callgsubr
          58 114 callsubr
          176 22 204 22 hintmask 11101110
          402 804 rmoveto
          hintmask 11111110
          -72 callgsubr
          hintmask 11101110
          34 4 16 24 22 42 24 -58 52 hhcurveto
          44 20 48 38 2 hvcurveto
          -249 -540 -106 callsubr
        </CharString>
        <CharString name="B">
          0 -51 callsubr
          hstemhm
          119 32 310 32 10 32 hintmask 11110100
          119 hmoveto
          172 hlineto
          109 callsubr
          4 vlineto
          hintmask 11111100
          95 callgsubr
          -160 hlineto
          32 -294 rmoveto
          266 114 vlineto
          119 callsubr
          -108 -338 rmoveto
          310 128 vlineto
          hintmask 11110100
          107 callgsubr
          endchar
        </CharString>
        <CharString name="C">
          -29 callsubr
          hstem
          74 34 -89 callsubr
          endchar
        </CharString>
        <CharString name="Cacute">
          -29 callsubr
          hstem
          74 34 -89 callsubr
          374 482 -57 callsubr
          endchar
        </CharString>
        <CharString name="Ccaron">
          -29 callsubr
          38 30 hstem
          74 34 -89 callsubr
          348 482 -79 callsubr
        </CharString>
        <CharString name="Ccedilla">
          -206 26 169 29 624 30 hstem
          74 34 254 30 vstem
          521 102 rmoveto
          -56 -50 -52 -28 -70 hhcurveto
          -148 -93 124 190 190 93 120 152 62 50 -28 -42 36 hvcurveto
          20 22 rlineto
          40 -34 -58 38 -76 hhcurveto
          -168 -111 -132 -208 -199 102 -134 151 -10 hvcurveto
          -33 -63 rlineto
          38 -10 -96 callgsubr
          18 -32 10 vhcurveto
          23 44 82 2 56 36 48 56 rlinecurve
          endchar
        </CharString>
        <CharString name="Ccircumflex">
          -29 callsubr
          112 30 hstem
          74 34 -89 callsubr
          188 378 -86 callsubr
          endchar
        </CharString>
        <CharString name="Cdotaccent">
          -29 callsubr
          52 70 hstem
          74 34 200 68 -89 callsubr
          268 392 -70 callsubr
        </CharString>
        <CharString name="D">
          63 callgsubr
          hstem
          100 32 378 -72 callsubr
          endchar
        </CharString>
        <CharString name="Dcaron">
          63 callgsubr
          50 30 hstem
          100 32 378 -72 callsubr
          136 786 -79 callsubr
        </CharString>
        <CharString name="Dcroat">
          -43 callgsubr
        </CharString>
        <CharString name="E">
          0 -51 callsubr
          79 callsubr
          vstem
          -94 callgsubr
          endchar
        </CharString>
        <CharString name="Eacute">
          0 -51 callsubr
          -28 182 hstemhm
          132 32 hintmask 11101000
          -94 callgsubr
          hintmask 11011000
          312 154 -57 callsubr
          endchar
        </CharString>
        <CharString name="Ebreve">
          0 -51 callsubr
          52 26 79 callsubr
          62 26 vstem
          -94 callgsubr
          206 52 rmoveto
          -69 callsubr
        </CharString>
        <CharString name="Ecaron">
          0 -51 callsubr
          -28 182 -104 30 hstemhm
          132 32 hintmask 11100100
          -94 callgsubr
          hintmask 11010100
          286 154 rmoveto
          hintmask 11101100
          -78 -74 rlineto
          -4 hlineto
          hintmask 11010100
          -78 74 -19 callgsubr
          hintmask 11101100
          96 -104 -38 callsubr
          hintmask 11010100
          96 104 rlineto
          endchar
        </CharString>
        <CharString name="Ecircumflex">
          0 -51 callsubr
          124 30 79 callsubr
          vstem
          -94 callgsubr
          126 50 -86 callsubr
          endchar
        </CharString>
        <CharString name="Edieresis">
          0 -51 callsubr
          -28 160 hstemhm
          132 32 66 64 88 64 hintmask 11101000
          -94 callgsubr
          hintmask 11011110
          130 68 rmoveto
          -99 callsubr
          152 55 callgsubr
        </CharString>
        <CharString name="Edotaccent">
          0 -51 callsubr
          64 70 79 callsubr
          140 68 vstem
          -94 callgsubr
          206 64 -70 callsubr
        </CharString>
        <CharString name="Egrave">
          0 -51 callsubr
          -28 182 hstemhm
          132 32 hintmask 11101000
          -94 callgsubr
          208 50 rmoveto
          30 hlineto
          hintmask 11011000
          -94 104 rlineto
          -44 hlineto
          endchar
        </CharString>
        <CharString name="Emacron">
          0 -51 callsubr
          76 28 79 callsubr
          vstem
          -94 callgsubr
          96 76 -59 callgsubr
          endchar
        </CharString>
        <CharString name="Eogonek">
          -202 28 174 -51 callsubr
          79 callsubr
          234 30 vstem
          132 hmoveto
          338 hlineto
          -40 -26 -32 -46 -50 vvcurveto
          -54 36 -80 callgsubr
          -26 18 36 60 51 50 45 10 hvcurveto
          2 28 -362 310 296 28 -296 266 352 28 -384 hlineto
          endchar
        </CharString>
        <CharString name="Eth">
          -43 callgsubr
        </CharString>
        <CharString name="Euro">
          -12 28 234 28 80 28 238 28 hstem
          130 34 vstem
          530 100 rmoveto
          -56 -47 -47 -28 -66 hhcurveto
          -112 -72 91 143 -18 hvcurveto
          286 28 -288 hlineto
          -1 14 -1 15 15 vvcurveto
          12 0 12 1 12 vhcurveto
          329 28 -326 hlineto
          147 16 77 91 123 hhcurveto
          56 44 -28 -42 36 hvcurveto
          22 20 rlineto
          40 -32 -58 38 -68 hhcurveto
          -139 -93 -101 -165 -18 hvcurveto
          -66 -4 rlineto
          -24 63 vlineto
          -1 -12 0 -12 -12 vvcurveto
          -15 1 -15 1 -14 vhcurveto
          -64 -4 rlineto
          -24 66 vlineto
          -161 20 88 -101 126 hhcurveto
          84 53 36 58 47 hvcurveto
          endchar
        </CharString>
        <CharString name="F">
          21 -21 326 28 278 28 hstem
          156 31 vstem
          156 hmoveto
          31 326 292 28 -292 278 347 28 -378 hlineto
          endchar
        </CharString>
        <CharString name="G">
          26 callsubr
          hstem
          61 34 394 33 vstem
          -100 callgsubr
          endchar
        </CharString>
        <CharString name="Gbreve">
          26 callsubr
          40 26 hstem
          61 34 125 26 243 33 vstem
          -100 callgsubr
          271 380 rmoveto
          -69 callsubr
        </CharString>
        <CharString name="Gcaron">
          26 callsubr
          38 30 hstem
          61 34 394 33 vstem
          -100 callgsubr
          351 482 -79 callsubr
        </CharString>
        <CharString name="Gcircumflex">
          26 callsubr
          112 30 hstem
          61 34 394 33 vstem
          -100 callgsubr
          191 378 -86 callsubr
          endchar
        </CharString>
        <CharString name="Gdotaccent">
          26 callsubr
          52 70 hstem
          61 34 203 68 123 33 vstem
          -100 callgsubr
          271 392 -70 callsubr
        </CharString>
        <CharString name="H">
          21 -21 338 28 294 -20 hstem
          92 32 352 -30 callsubr
          endchar
        </CharString>
        <CharString name="Hbar">
          21 -21 338 28 130 28 -28 164 hstemhm
          92 32 352 32 hintmask 11101100
          476 366 rmoveto
          -352 130 352 hlineto
          108 28 rmoveto
          -76 hlineto
          129 callgsubr
          -352 vlineto
          129 callgsubr
          vlineto
          -76 -4 rlineto
          -24 76 -496 32 338 352 -338 32 496 76 vlineto
          endchar
        </CharString>
        <CharString name="Hcircumflex">
          21 -21 338 28 294 -20 144 30 hstem
          92 32 352 -30 callsubr
          128 50 -86 callsubr
          endchar
        </CharString>
        <CharString name="I">
          0 28 604 113 callsubr
          -85 callgsubr
          endchar
        </CharString>
        <CharString name="Iacute">
          0 28 604 113 callsubr
          -85 callgsubr
          294 786 -57 callsubr
          endchar
        </CharString>
        <CharString name="Icircumflex">
          63 callgsubr
          124 30 77 callgsubr
          -85 callgsubr
          108 682 -86 callsubr
          endchar
        </CharString>
        <CharString name="Idieresis">
          63 callgsubr
          68 64 hstemhm
          192 64 28 32 28 64 hintmask 11001000
          -85 callgsubr
          hintmask 11111100
          112 700 rmoveto
          -99 callsubr
          152 55 callgsubr
        </CharString>
        <CharString name="Idotaccent">
          63 callgsubr
          64 70 hstemhm
          266 68 -50 32 hintmask 11001000
          -85 callgsubr
          hintmask 11110000
          188 696 -70 callsubr
        </CharString>
        <CharString name="Igrave">
          0 28 604 113 callsubr
          -85 callgsubr
          190 682 15 callsubr
        </CharString>
        <CharString name="Imacron">
          63 callgsubr
          76 113 callsubr
          -85 callgsubr
          78 708 -59 callgsubr
          endchar
        </CharString>
        <CharString name="Iogonek">
          -202 28 174 128 callgsubr
          hstemhm
          228 30 26 32 hintmask 11101000
          112 hmoveto
          hintmask 11111000
          176 hlineto
          -34 -36 -26 -34 -52 vvcurveto
          -54 36 -80 callgsubr
          -26 18 36 46 26 34 32 40 hvcurveto
          172 28 hlineto
          hintmask 11101000
          -172 604 172 28 -376 -28 172 -604 -172 hlineto
          endchar
        </CharString>
        <CharString name="Itilde">
          63 callgsubr
          58 93 callgsubr
          -85 callgsubr
          hintmask 11111110
          246 690 -6 callgsubr
        </CharString>
        <CharString name="J">
          -12 29 617 27 0 callsubr
          endchar
        </CharString>
        <CharString name="Jcircumflex">
          -12 29 617 27 123 30 0 callsubr
          112 595 -86 callsubr
          endchar
        </CharString>
        <CharString name="K">
          63 callsubr
          hstem
          122 32 4 callsubr
          endchar
        </CharString>
        <CharString name="L">
          0 68 callgsubr
          -43 callsubr
          endchar
        </CharString>
        <CharString name="Lacute">
          0 68 callgsubr
          -43 callsubr
          136 154 -57 callsubr
          endchar
        </CharString>
        <CharString name="Lcaron">
          0 68 callgsubr
          205 29 -43 callsubr
          258 -142 -3 callsubr
        </CharString>
        <CharString name="Ldot">
          0 28 272 84 276 127 callsubr
          186 80 -43 callsubr
          256 -360 -105 callsubr
        </CharString>
        <CharString name="Lslash">
          0 68 callgsubr
          vstem
          186 28 rmoveto
          237 vlineto
          241 125 rlineto
          30 vlineto
          -241 -125 rlineto
          365 -30 -379 vlineto
          -87 -45 rlineto
          -30 vlineto
          87 45 rlineto
          -251 382 28 vlineto
          endchar
        </CharString>
        <CharString name="M">
          21 -21 181 41 401 37 hstem
          95 31 347 -35 callsubr
          endchar
        </CharString>
        <CharString name="N">
          0 137 callsubr
          hstem
          96 30 348 30 vstem
          -92 callsubr
          endchar
        </CharString>
        <CharString name="Nacute">
          0 137 callsubr
          hstem
          96 30 348 30 vstem
          -92 callsubr
          316 154 -57 callsubr
          endchar
        </CharString>
        <CharString name="Ncaron">
          0 137 callsubr
          50 30 hstem
          96 30 348 30 vstem
          -92 callsubr
          290 154 -79 callsubr
        </CharString>
        <CharString name="Ntilde">
          0 137 callsubr
          58 114 callsubr
          96 30 56 22 204 22 44 30 hintmask 11011111
          -92 callsubr
          hintmask 11111111
          268 58 -54 callgsubr
        </CharString>
        <CharString name="O">
          -29 callsubr
          hstem
          56 34 420 34 vstem
          -106 callgsubr
          endchar
        </CharString>
        <CharString name="OE">
          0 28 310 28 268 27 hstem
          44 33 246 33 vstem
          44 332 rmoveto
          -196 87 -136 172 vhcurveto
          285 28 -232 310 170 28 -170 268 222 27 -276 hlineto
          -172 -86 -132 -197 hvcurveto
          33 hmoveto
          175 67 126 154 vhcurveto
          25 -605 -25 hlineto
          -154 -67 130 174 hvcurveto
          endchar
        </CharString>
        <CharString name="Oacute">
          -29 callsubr
          hstem
          56 34 420 34 vstem
          -106 callgsubr
          106 796 -57 callsubr
          endchar
        </CharString>
        <CharString name="Ocircumflex">
          -29 callsubr
          112 30 hstem
          56 34 420 34 vstem
          -106 callgsubr
          -80 692 -86 callsubr
          endchar
        </CharString>
        <CharString name="Odieresis">
          -29 callsubr
          56 64 hstem
          56 34 102 64 88 64 102 34 vstem
          -106 callgsubr
          -76 710 rmoveto
          -99 callsubr
          152 55 callgsubr
        </CharString>
        <CharString name="Ograve">
          -29 callsubr
          hstem
          56 34 420 34 vstem
          -106 callgsubr
          2 692 15 callsubr
        </CharString>
        <CharString name="Ohorn">
          -29 callsubr
          hstemhm
          56 34 416 30 -26 34 hintmask 11101000
          300 18 rmoveto
          -125 -85 124 190 190 85 120 -6 callsubr
          85 -120 -190 -190 -85 -124 -125 hvcurveto
          hintmask 11110000
          -78 callgsubr
          hintmask 11101000
          -26 callsubr
          hintmask 11110000
          58 13 38 28 52 -70 callgsubr
        </CharString>
        <CharString name="Ohungarumlaut">
          -29 callsubr
          38 104 hstem
          56 34 420 34 vstem
          -106 callgsubr
          -58 692 7 callsubr
        </CharString>
        <CharString name="Omacron">
          -29 callsubr
          64 28 hstem
          56 34 420 34 vstem
          -106 callgsubr
          -110 718 -59 callgsubr
          endchar
        </CharString>
        <CharString name="Oslash">
          -12 30 -1 -21 646 30 -8 -20 hstemhm
          56 34 420 34 hintmask 10101100
          459 547 rmoveto
          33 -53 18 -74 -88 vvcurveto
          -190 -85 -124 -125 -58 -50 27 48 -36 vhcurveto
          -17 25 rmoveto
          -31 53 -18 74 87 vvcurveto
          190 85 120 125 58 49 -25 -46 36 vhcurveto
          hintmask 10011100
          95 93 rmoveto
          hintmask 01101100
          -22 16 -55 -82 rlineto
          48 -42 -55 26 -64 hhcurveto
          -142 -102 -132 -208 -100 24 -84 40 -59 hvcurveto
          -62 -93 rlineto
          hintmask 10011100
          22 -16 57 86 rlineto
          -50 43 56 -28 64 hhcurveto
          142 102 136 208 101 -24 84 -41 58 hvcurveto
          endchar
        </CharString>
        <CharString name="Otilde">
          -29 callsubr
          46 114 callsubr
          56 34 86 22 204 22 86 34 hintmask 11011111
          -106 callgsubr
          hintmask 11111111
          58 700 -54 callgsubr
        </CharString>
        <CharString name="P">
          21 -21 292 28 312 28 104 callgsubr
          338 34 vstem
          124 hmoveto
          32 292 78 callgsubr
          -172 hlineto
          32 -340 rmoveto
          56 callsubr
        </CharString>
        <CharString name="Q">
          -150 33 106 27 629 28 hstem
          60 32 416 32 vstem
          92 332 rmoveto
          190 81 123 127 127 81 -123 -190 -189 -81 -127 -127 -127 -81 127 189 vhcurveto
          433 -442 rmoveto
          -4 -11 -15 -3 -20 hhcurveto
          -87 -53 40 66 -22 hvcurveto
          134 10 89 134 199 vvcurveto
          208 -97 133 -143 -143 -97 -133 -208 -198 89 -134 132 -11 vhcurveto
          -78 27 61 -61 106 hhcurveto
          19 17 3 5 21 hvcurveto
          endchar
        </CharString>
        <CharString name="R">
          21 30 callgsubr
          328 34 vstem
          156 340 -52 callsubr
          234 -340 rmoveto
          -188 314 rlineto
          -77 callsubr
          endchar
        </CharString>
        <CharString name="Racute">
          21 61 callsubr
          50 104 104 callgsubr
          328 34 vstem
          412 36 callgsubr
          -148 -370 -52 callsubr
          234 -340 rmoveto
          -188 314 rlineto
          -77 callsubr
          endchar
        </CharString>
        <CharString name="Rcaron">
          21 61 callsubr
          50 30 104 callgsubr
          328 34 vstem
          320 710 rmoveto
          96 104 -19 callgsubr
          -78 -74 rlineto
          -4 hlineto
          -78 74 -19 callgsubr
          96 -104 rlineto
          -136 -370 -52 callsubr
          234 -340 rmoveto
          -188 314 rlineto
          -77 callsubr
          endchar
        </CharString>
        <CharString name="S">
          -12 100 callgsubr
          346 -100 callsubr
          endchar
        </CharString>
        <CharString name="Sacute">
          -12 100 callgsubr
          346 -100 callsubr
          318 704 -57 callsubr
          endchar
        </CharString>
        <CharString name="Scaron">
          -29 callsubr
          38 30 hstem
          116 32 346 -100 callsubr
          292 704 -79 callsubr
        </CharString>
        <CharString name="Scircumflex">
          -29 callsubr
          112 30 hstem
          116 32 346 -100 callsubr
          132 600 -86 callsubr
          endchar
        </CharString>
        <CharString name="T">
          21 -21 632 113 callsubr
          -13 callgsubr
          endchar
        </CharString>
        <CharString name="Tcaron">
          21 -21 632 28 -28 182 -104 30 hstemhm
          284 32 hintmask 11011000
          -13 callgsubr
          hintmask 10101000
          95 182 24 callgsubr
        </CharString>
        <CharString name="Thorn">
          21 -21 172 28 312 28 -28 148 hstemhm
          124 32 338 34 hintmask 11101100
          124 hmoveto
          32 172 78 callgsubr
          -140 hlineto
          hintmask 11011100
          120 -32 vlineto
          32 -460 rmoveto
          hintmask 11101100
          56 callsubr
        </CharString>
        <CharString name="U">
          -24 callgsubr
          hstem
          92 32 354 30 vstem
          -101 callsubr
          endchar
        </CharString>
        <CharString name="Uacute">
          -24 callgsubr
          hstem
          92 32 354 30 vstem
          -101 callsubr
          314 154 -57 callsubr
          endchar
        </CharString>
        <CharString name="Ubreve">
          -24 callgsubr
          72 26 hstem
          92 32 64 26 264 30 vstem
          -101 callsubr
          208 52 rmoveto
          -69 callsubr
        </CharString>
        <CharString name="Ucircumflex">
          -24 callgsubr
          144 30 hstem
          92 32 354 30 vstem
          -101 callsubr
          128 50 -86 callsubr
          endchar
        </CharString>
        <CharString name="Udieresis">
          -24 callgsubr
          88 64 -68 callsubr
          132 68 rmoveto
          -99 callsubr
          152 55 callgsubr
        </CharString>
        <CharString name="Ugrave">
          -24 callgsubr
          hstem
          92 32 354 30 vstem
          -101 callsubr
          210 50 15 callsubr
        </CharString>
        <CharString name="Uhorn">
          -24 callgsubr
          hstem
          92 32 354 30 68 30 vstem
          562 768 -90 callgsubr
        </CharString>
        <CharString name="Uhungarumlaut">
          97 callgsubr
          vstem
          -101 callsubr
          150 50 7 callsubr
        </CharString>
        <CharString name="Umacron">
          -24 callgsubr
          96 28 hstem
          92 32 354 30 vstem
          -101 callsubr
          98 76 -59 callgsubr
          endchar
        </CharString>
        <CharString name="Uogonek">
          -202 28 163 29 642 -20 hstem
          92 32 124 30 200 30 vstem
          92 246 rmoveto
          -172 72 -90 150 5 vhcurveto
          -32 -32 -34 -29 -50 vvcurveto
          -54 36 -80 callgsubr
          -26 18 36 42 42 52 64 28 hvcurveto
          68 30 56 67 147 vvcurveto
          414 -30 -406 vlineto
          -182 -86 -54 -93 -93 -82 54 182 vhcurveto
          406 -32 vlineto
          endchar
        </CharString>
        <CharString name="Uring">
          -24 callgsubr
          60 22 116 22 hstem
          92 32 98 24 106 26 100 30 vstem
          -101 callsubr
          208 40 6 callgsubr
        </CharString>
        <CharString name="Utilde">
          58 callsubr
          hintmask 11011111
          -101 callsubr
          hintmask 11111111
          266 58 -54 callgsubr
        </CharString>
        <CharString name="V">
          0 41 619 -20 hstem
          65 470 vstem
          285 hmoveto
          32 hlineto
          218 660 rlineto
          -32 hlineto
          -128 -396 -26 -82 -18 -60 -28 -81 rlinecurve
          -4 hlineto
          -28 81 -18 60 -26 82 -128 396 rcurveline
          -34 hlineto
          endchar
        </CharString>
        <CharString name="W">
          44 callgsubr
          hstem
          15 569 -93 callgsubr
          endchar
        </CharString>
        <CharString name="Wacute">
          44 callgsubr
          hstem
          15 569 -93 callgsubr
          391 153 -57 callsubr
          endchar
        </CharString>
        <CharString name="Wcircumflex">
          44 callgsubr
          143 30 hstem
          15 569 -93 callgsubr
          205 49 -86 callsubr
          endchar
        </CharString>
        <CharString name="Wdieresis">
          44 callgsubr
          87 64 hstem
          192 64 88 64 -93 callgsubr
          209 67 rmoveto
          -99 callsubr
          152 55 callgsubr
        </CharString>
        <CharString name="Wgrave">
          44 callgsubr
          hstem
          15 569 -93 callgsubr
          287 49 15 callsubr
        </CharString>
        <CharString name="X">
          63 callsubr
          hstem
          83 434 vstem
          83 hmoveto
          32 hlineto
          122 212 18 32 18 32 22 40 rlinecurve
          4 hlineto
          24 -40 20 -32 18 -32 122 -212 rcurveline
          34 hlineto
          -200 340 186 320 rlineto
          -32 hlineto
          -116 -204 -18 -30 -12 -22 -20 -36 rlinecurve
          -4 hlineto
          -22 36 -14 22 -18 30 -116 204 rcurveline
          -34 hlineto
          186 -318 rlineto
          endchar
        </CharString>
        <CharString name="Y">
          63 callsubr
          77 callgsubr
          -95 callsubr
          endchar
        </CharString>
        <CharString name="Yacute">
          63 callsubr
          77 callgsubr
          -95 callsubr
          122 569 -57 callsubr
          endchar
        </CharString>
        <CharString name="Ycircumflex">
          63 callsubr
          144 30 77 callgsubr
          -95 callsubr
          -64 465 -86 callsubr
          endchar
        </CharString>
        <CharString name="Ydieresis">
          63 callsubr
          88 64 hstemhm
          192 64 28 32 28 64 hintmask 11101000
          -95 callsubr
          hintmask 11111100
          -60 483 rmoveto
          -99 callsubr
          152 55 callgsubr
        </CharString>
        <CharString name="Ygrave">
          63 callsubr
          77 callgsubr
          -95 callsubr
          18 465 15 callsubr
        </CharString>
        <CharString name="Z">
          0 28 606 27 hstem
          72 461 vstem
          -55 callsubr
          endchar
        </CharString>
        <CharString name="Zacute">
          0 28 606 27 -27 180 hstemhm
          72 461 hintmask 11010000
          -55 callsubr
          hintmask 10110000
          350 795 -57 callsubr
          endchar
        </CharString>
        <CharString name="Zcaron">
          0 28 606 27 -27 180 -104 30 hstemhm
          72 461 hintmask 11001000
          -55 callsubr
          hintmask 10101000
          324 795 24 callgsubr
        </CharString>
        <CharString name="Zdotaccent">
          0 28 606 27 63 70 hstem
          282 68 vstem
          -55 callsubr
          244 705 -70 callsubr
        </CharString>
        <CharString name="a">
          -76 callsubr
          39 callsubr
          hintmask 10111000
          -91 callgsubr
          hintmask 01111000
          -103 callsubr
          hintmask 10111000
          -103 callgsubr
          endchar
        </CharString>
        <CharString name="a.a">
          -12 2 callgsubr
          358 30 hintmask 10101100
          -107 callsubr
          hintmask 01011100
          -67 callsubr
          hintmask 10101100
          -97 callsubr
          endchar
        </CharString>
        <CharString name="a.supa">
          -48 callsubr
        </CharString>
        <CharString name="a.sups">
          -55 callgsubr
        </CharString>
        <CharString name="aacute">
          -76 callsubr
          39 callsubr
          hintmask 10111000
          -91 callgsubr
          hintmask 01111000
          -103 callsubr
          hintmask 10111000
          -103 callgsubr
          270 588 -64 callgsubr
        </CharString>
        <CharString name="aacute.a">
          -12 2 callgsubr
          358 30 hintmask 10101100
          -107 callsubr
          hintmask 01011100
          -67 callsubr
          hintmask 10101100
          -97 callsubr
          312 468 -64 callgsubr
        </CharString>
        <CharString name="abreve">
          -76 callsubr
          86 26 hstemhm
          96 32 74 72 callsubr
          36 30 hintmask 10111001
          -91 callgsubr
          hintmask 01111001
          -103 callsubr
          hintmask 10111001
          -103 callgsubr
          hintmask 10111111
          190 458 -97 callgsubr
        </CharString>
        <CharString name="abreve.a">
          -58 callgsubr
          118 136 callsubr
          84 72 callsubr
          42 30 hintmask 1010110010000000
          -107 callsubr
          hintmask 0101110010000000
          -67 callsubr
          hintmask 1010110010000000
          -97 callsubr
          hintmask 1010111110000000
          16 callgsubr
          endchar
        </CharString>
        <CharString name="acircumflex">
          -76 callsubr
          184 32 39 callsubr
          hintmask 10101100
          -91 callgsubr
          hintmask 01101100
          -103 callsubr
          hintmask 10101100
          -103 callgsubr
          82 454 -23 callgsubr
          hintmask 10111100
          19 callsubr
        </CharString>
        <CharString name="acircumflex.a">
          -58 callgsubr
          216 32 40 callsubr
          hintmask 10100110
          -107 callsubr
          hintmask 01010110
          -67 callsubr
          hintmask 10100110
          -97 callsubr
          124 334 -23 callgsubr
          hintmask 10101110
          19 callsubr
        </CharString>
        <CharString name="acute">
          572 134 hstem
          248 132 vstem
          380 123 callgsubr
          endchar
        </CharString>
        <CharString name="adieresis">
          -76 callsubr
          112 72 hstemhm
          96 32 70 68 104 68 32 30 hintmask 10101001
          -91 callgsubr
          hintmask 01101001
          -103 callsubr
          hintmask 10101001
          -103 callgsubr
          hintmask 10111111
          104 484 -94 callsubr
        </CharString>
        <CharString name="adieresis.a">
          -58 callgsubr
          144 72 hstemhm
          70 32 80 68 104 68 38 30 hintmask 1010010010000000
          -107 callsubr
          hintmask 0101010010000000
          -67 callsubr
          hintmask 1010010010000000
          -97 callsubr
          hintmask 1010111110000000
          146 364 -94 callsubr
        </CharString>
        <CharString name="ae">
          -12 27 223 26 198 28 hstem
          17 32 235 32 254 30 vstem
          17 122 rmoveto
          -91 54 -43 71 55 61 39 63 56 vhcurveto
          -64 30 48 -38 69 hhcurveto
          57 39 22 18 29 hvcurveto
          -13 22 rlineto
          -17 -28 -37 -18 -46 hhcurveto
          -102 -46 96 127 1 hvcurveto
          283 hlineto
          2 20 0 12 12 vvcurveto
          110 -44 98 -96 -69 -53 -46 -72 -30 vhcurveto
          66 -14 -43 52 -68 hhcurveto
          -63 -55 -30 -20 -29 hvcurveto
          14 -23 rlineto
          21 28 54 25 42 hhcurveto
          83 28 -71 -94 -1 hvcurveto
          -175 -22 -92 -62 -92 vvcurveto
          299 142 rmoveto
          120 4 53 78 85 hhcurveto
          86 26 -92 -106 hvcurveto
          -521 -144 rmoveto
          81 67 46 168 25 vhcurveto
          -28 vlineto
          -48 7 -44 11 -36 vhcurveto
          -65 -48 -63 -36 -46 hhcurveto
          -58 -38 36 69 hvcurveto
          endchar
        </CharString>
        <CharString name="agrave">
          -76 callsubr
          39 callsubr
          hintmask 10111000
          -91 callgsubr
          hintmask 01111000
          -103 callsubr
          hintmask 10111000
          -103 callgsubr
          214 454 -47 callgsubr
        </CharString>
        <CharString name="agrave.a">
          -12 2 callgsubr
          358 30 hintmask 10101100
          -107 callsubr
          hintmask 01011100
          -67 callsubr
          hintmask 10101100
          -97 callsubr
          256 334 -47 callgsubr
        </CharString>
        <CharString name="amacron">
          -76 callsubr
          118 28 39 callsubr
          hintmask 10111100
          -91 callgsubr
          hintmask 01111100
          -103 callsubr
          hintmask 10111100
          -103 callgsubr
          80 490 -59 callgsubr
          endchar
        </CharString>
        <CharString name="amacron.a">
          -58 callgsubr
          150 28 40 callsubr
          hintmask 10101110
          -107 callsubr
          hintmask 01011110
          -67 callsubr
          hintmask 10101110
          -97 callsubr
          122 370 -59 callgsubr
          endchar
        </CharString>
        <CharString name="ampersand">
          -12 28 628 28 hstem
          57 32 60 30 174 30 vstem
          245 16 rmoveto
          -84 -72 60 92 71 54 51 63 49 hvcurveto
          48 -91 73 -88 72 -67 rrcurveto
          -45 -43 -53 -32 -58 hhcurveto
          -66 514 rmoveto
          62 36 52 62 56 20 -46 -44 -72 -66 -50 -69 -52 vhcurveto
          -24 52 -15 51 47 vvcurveto
          390 -514 rmoveto
          -39 15 -44 27 -47 39 53 67 39 86 26 92 rrcurveto
          -30 hlineto
          -24 -88 -35 -77 -50 -62 -70 64 -72 88 -47 90 rrcurveto
          76 58 78 57 84 vvcurveto
          66 -36 50 -68 -76 -54 -60 -84 -52 17 -57 28 -57 vhcurveto
          -70 -53 -67 -58 -85 vvcurveto
          -110 86 -68 100 73 56 35 51 48 vhcurveto
          51 -43 46 -28 40 -15 rrcurveto
          endchar
        </CharString>
        <CharString name="aogonek">
          103 callgsubr
          -66 callgsubr
          hstemhm
          96 32 256 30 56 30 hintmask 11011110
          -91 callgsubr
          4 -66 rlineto
          -50 -30 -40 -50 -50 vvcurveto
          -54 34 -80 callgsubr
          -24 18 36 hvcurveto
          hintmask 10111110
          44 38 50 48 26 vhcurveto
          310 vlineto
          96 -49 84 -127 -86 -84 -46 -26 -34 vhcurveto
          16 -24 rlineto
          28 37 73 40 76 hhcurveto
          116 32 -80 -84 hvcurveto
          hintmask 11011110
          -103 callgsubr
          endchar
        </CharString>
        <CharString name="aogonek.a">
          103 callgsubr
          2 callgsubr
          272 30 56 30 hintmask 11010111
          -107 callsubr
          4 -66 rlineto
          -56 -40 -34 -40 -50 vvcurveto
          -54 34 -80 callgsubr
          -24 18 36 hvcurveto
          hintmask 10101111
          44 32 40 54 36 vhcurveto
          478 -26 vlineto
          hintmask 11010111
          -97 callsubr
          endchar
        </CharString>
        <CharString name="approxequal">
          170 28 64 28 80 28 64 28 hstem
          96 408 vstem
          120 372 -36 callsubr
          24 -208 -36 callsubr
          endchar
        </CharString>
        <CharString name="aring">
          -76 callsubr
          48 22 124 22 hstemhm
          96 32 112 24 108 24 74 30 hintmask 1011111110000000
          -91 callgsubr
          hintmask 0111111110000000
          -103 callsubr
          hintmask 1011111110000000
          -103 callgsubr
          190 420 -73 callgsubr
        </CharString>
        <CharString name="aring.a">
          -58 callgsubr
          80 22 124 22 hstemhm
          70 32 122 24 108 24 80 30 hintmask 1010111111000000
          -107 callsubr
          hintmask 0101111111000000
          -67 callsubr
          hintmask 1010111111000000
          54 callgsubr
          300 -73 callgsubr
        </CharString>
        <CharString name="arrowdown">
          -24 550 hstem
          286 28 vstem
          302 -24 rmoveto
          264 268 -20 20 -232 -242 rlineto
          504 -28 -504 vlineto
          -232 242 -20 -20 264 -268 rlineto
          endchar
        </CharString>
        <CharString name="arrowup">
          -24 550 hstem
          286 28 vstem
          298 526 rmoveto
          -264 -268 20 -20 232 242 rlineto
          -504 28 504 vlineto
          232 -242 20 20 -264 268 rlineto
          endchar
        </CharString>
        <CharString name="asciicircum">
          638 32 hstem
          132 336 vstem
          132 292 rmoveto
          32 hlineto
          82 214 52 132 -15 callsubr
          52 -132 82 -214 rlineto
          32 hlineto
          -150 378 rlineto
          -36 hlineto
          endchar
        </CharString>
        <CharString name="asciitilde">
          270 28 64 28 hstem
          96 408 vstem
          120 272 -36 callsubr
          endchar
        </CharString>
        <CharString name="asterisk">
          128 420 hstem
          284.5 31 vstem
          176 128 rmoveto
          124 172 124 -172 24 17 -118 173 169 72 -9 24 -172 -64 -5 198 rlineto
          -26 hlineto
          -5 -198 -172 64 -9 -24 169 -72 -118 -173 rlineto
          endchar
        </CharString>
        <CharString name="asterisk.a">
          346 366 hstem
          284.5 31 vstem
          196 346 rmoveto
          104 151 104 -151 24 17 -99 153 150 58 -9 24 -152 -51 -5 165 rlineto
          -26 hlineto
          -5 -167 -152 53 -9 -24 150 -58 -99 -153 rlineto
          endchar
        </CharString>
        <CharString name="at">
          -142 28 202 28 484 96 callgsubr
          396 rmoveto
          132 -62 100 -128 -166 -122 -139 -241 -246 123 -144 53 callsubr
          140 220 221 110 133 143 117 46 -92 -113 -15 callgsubr
        </CharString>
        <CharString name="at.case">
          -12 28 152 28 448 96 callgsubr
          476 rmoveto
          108 -62 88 -128 -166 -122 -127 -217 -216 123 -124 53 callsubr
          120 190 197 110 121 143 117 46 -78 -91 -15 callgsubr
        </CharString>
        <CharString name="atilde">
          -76 callsubr
          92 137 callgsubr
          96 32 72 -4 callsubr
          34 30 hintmask 1010111110000000
          -91 callgsubr
          hintmask 0110111110000000
          -103 callsubr
          hintmask 1010111110000000
          -103 callgsubr
          72 464 rmoveto
          -44 callsubr
          hintmask 1011111110000000
          -79 callgsubr
          hintmask 1010111110000000
          -51 callgsubr
          endchar
        </CharString>
        <CharString name="atilde.a">
          -58 callgsubr
          124 26 30 136 callsubr
          82 -4 callsubr
          40 30 hintmask 1010011111000000
          -107 callsubr
          hintmask 0101011111000000
          -67 callsubr
          hintmask 1010011111000000
          -97 callsubr
          114 344 rmoveto
          -44 callsubr
          hintmask 1010111111000000
          -79 callgsubr
          hintmask 1010011111000000
          -51 callgsubr
          endchar
        </CharString>
        <CharString name="b">
          -76 callsubr
          232 -20 hstemhm
          110 30 358 32 hintmask 01111100
          110 hmoveto
          26 hlineto
          hintmask 10111100
          88 callsubr
          96 162 148 -67 96 -137 -64 -71 -36 -52 -53 hvcurveto
          2 106 rlineto
          214 -30 vlineto
          30 -630 rmoveto
          58 callgsubr
          -110 -41 -67 21 55 -60 hvcurveto
          endchar
        </CharString>
        <CharString name="b.sups">
          89 callgsubr
          186 260 rmoveto
          26 hlineto
          4 30 rlineto
          1 hlineto
          -23 32 38 -15 33 hhcurveto
          78 70 64 107 99 -45 63 -91 -41 -41 -22 -27 -34 hvcurveto
          2 61 rlineto
          137 -32 vlineto
          32 -414 rmoveto
          186 vlineto
          33 39 37 105 callsubr
          -36 11 29 -37 hvcurveto
          endchar
        </CharString>
        <CharString name="backslash">
          131 callgsubr
          446 -160 rmoveto
          34 hlineto
          -326 870 rlineto
          -34 hlineto
          endchar
        </CharString>
        <CharString name="bar">
          117 callsubr
          -250 rmoveto
          28 1000 -28 hlineto
          endchar
        </CharString>
        <CharString name="braceleft">
          131 callsubr
          132 96 46 37 vstem
          274 -26 rmoveto
          -99 61 -27 123 vhcurveto
          48 23 -60 hlineto
          -117 -25 34 73 hvcurveto
          67 7 55 74 vvcurveto
          55 -17 35 -66 12 vhcurveto
          4 vlineto
          66 12 17 35 55 65 -7 70 61 vvcurveto
          73 25 34 117 vhcurveto
          60 23 -48 hlineto
          -123 -61 -27 -99 hvcurveto
          -68 9 -79 -64 vvcurveto
          -41 -25 -40 -126 vhcurveto
          -24 vlineto
          126 25 -40 -41 hvcurveto
          -71 -9 -66 -74 vvcurveto
          endchar
        </CharString>
        <CharString name="braceright">
          131 callsubr
          290 35 47 95 vstem
          94 -129 rmoveto
          -23 48 vlineto
          123 60 27 99 hvcurveto
          74 -8 66 71 vvcurveto
          41 25 40 125 vhcurveto
          24 vlineto
          -125 -25 40 41 hvcurveto
          64 8 79 68 vvcurveto
          99 -60 27 -123 vhcurveto
          -48 -23 60 hlineto
          117 27 -34 -73 hvcurveto
          -61 -8 -70 -65 vvcurveto
          -55 15 -35 67 -12 vhcurveto
          -4 vlineto
          -67 -12 -15 -35 -55 -74 8 -55 -67 vvcurveto
          -73 -27 -34 -117 vhcurveto
          endchar
        </CharString>
        <CharString name="bracketleft">
          -152 23 814 23 hstem
          246 28 vstem
          246 -152 rmoveto
          260 23 -232 814 232 23 -260 hlineto
          endchar
        </CharString>
        <CharString name="bracketright">
          -152 23 814 23 hstem
          326 28 vstem
          94 -129 rmoveto
          -23 260 860 -260 -23 232 -814 vlineto
          endchar
        </CharString>
        <CharString name="breve">
          -2 callsubr
        </CharString>
        <CharString name="brokenbar">
          117 callsubr
          274 rmoveto
          28 476 -28 hlineto
          -528 vmoveto
          -472 28 472 vlineto
          endchar
        </CharString>
        <CharString name="bullet">
          126 272 hstem
          164 272 vstem
          300 126 rmoveto
          68 68 52 84 84 -68 52 -68 -68 -68 -52 -84 -84 68 -52 68 hvcurveto
          endchar
        </CharString>
        <CharString name="c">
          -40 callgsubr
          hstem
          90 32 -87 callsubr
          endchar
        </CharString>
        <CharString name="c.sups">
          252 28 278 27 hstem
          189 32 vstem
          189 418 rmoveto
          -105 67 -61 90 44 37 18 24 30 vhcurveto
          -16 22 rlineto
          -20 -24 -32 -16 -38 hhcurveto
          -76 -50 56 82 82 55 58 72 33 27 -15 -19 22 hvcurveto
          19 22 rlineto
          20 -24 -31 19 -47 hhcurveto
          -84 -74 -61 -106 hvcurveto
          endchar
        </CharString>
        <CharString name="cacute">
          -40 callgsubr
          hstem
          90 32 -87 callsubr
          335 468 -64 callgsubr
        </CharString>
        <CharString name="caron">
          572 32 hstem
          192 216 vstem
          286 572 rmoveto
          -86 callgsubr
        </CharString>
        <CharString name="ccaron">
          -40 callgsubr
          82 32 hstem
          90 32 -87 callsubr
          241 334 rmoveto
          -86 callgsubr
        </CharString>
        <CharString name="ccedilla">
          64 callsubr
          -24 callsubr
          hstem
          90 32 245 30 vstem
          360 -12 rmoveto
          70 3 57 31 45 44 -18 22 rcurveline
          -42 -44 -55 -30 -67 hhcurveto
          -136 -90 102 callgsubr
          92 92 134 62 48 -28 -40 41 hvcurveto
          20 22 rlineto
          38 -39 -51 36 -81 hhcurveto
          -142 -116 -92 -160 -152 102 -91 140 -7 hvcurveto
          -33 -62 rlineto
          38 -10 -96 callgsubr
          18 -32 10 vhcurveto
          endchar
        </CharString>
        <CharString name="ccircumflex">
          -40 callgsubr
          184 32 hstem
          90 32 -87 callsubr
          147 334 -23 callgsubr
          19 callsubr
        </CharString>
        <CharString name="cdotaccent">
          -40 callgsubr
          110 84 hstem
          90 32 183 80 -87 callsubr
          255 362 -105 callsubr
        </CharString>
        <CharString name="cedilla">
          -206 26 -26 208 hstemhm
          334 30 hintmask 01100000
          266 -74 rmoveto
          hintmask 10100000
          38 -10 -96 callgsubr
          18 -32 10 vhcurveto
          30 58 46 callsubr
        </CharString>
        <CharString name="cent">
          84 28 400 28 112 -20 hstem
          126 32 158 28 vstem
          316 113 rmoveto
          -96 11 -62 77 111 vvcurveto
          110 68 77 90 11 vhcurveto
          158 -342 rmoveto
          -33 -30 -45 -25 -52 -1 rrcurveto
          400 vlineto
          48 -1 39 -22 31 -29 18 20 rcurveline
          -31 29 -41 30 -64 1 rrcurveto
          112 -28 -113 vlineto
          -104 -11 -86 -78 -138 vvcurveto
          -136 80 -81 110 -10 vhcurveto
          -111 28 110 vlineto
          60 1 49 28 39 35 rrcurveto
          endchar
        </CharString>
        <CharString name="circumflex">
          674 32 hstem
          192 216 vstem
          192 572 -23 callgsubr
          19 callsubr
        </CharString>
        <CharString name="colon">
          -12 116 270 82 callgsubr
          432 rmoveto
          91 callsubr
          -39 callsubr
          vhcurveto
          -386 vmoveto
          91 callsubr
          -39 callsubr
          vhcurveto
          endchar
        </CharString>
        <CharString name="colonmonetary">
          -12 28 -27 28 607 28 -7 -20 23 -20 hstemhm
          110 34 178 28 -18 28 hintmask 01100110
          341 623 rmoveto
          1 7 8 0 8 hhcurveto
          17 16 -3 -4 15 hvcurveto
          hintmask 10100110
          -71 -601 -26 1 -23 6 -21 11 rlinecurve
          -26 16 rmoveto
          -65 48 -36 97 127 vvcurveto
          160 61 110 107 26 vhcurveto
          hintmask 01010110
          198 -518 rmoveto
          -42 -50 -43 -28 -56 -5 70 588 rcurveline
          23 -12 20 -18 18 -21 22 20 rcurveline
          -19 23 -27 23 -34 15 14 115 rcurveline
          -28 hlineto
          -12 -105 rlineto
          hintmask 01100110
          4 -17 -17 3 -18 hhcurveto
          -7 -6 0 -1 -7 hvcurveto
          12 99 -63 callgsubr
          hintmask 10001110
          -12 -102 rlineto
          -128 -24 -78 -122 -180 vvcurveto
          -146 49 -110 82 -49 vhcurveto
          hintmask 10100101
          -15 -127 -38 callsubr
          13 114 22 -9 24 -6 25 -1 rlinecurve
          hintmask 01100101
          -12 -98 -38 callsubr
          12 99 74 4 48 35 44 54 rlinecurve
          endchar
        </CharString>
        <CharString name="comma">
          -1 107 hstem
          331 38 vstem
          221 -210 rmoveto
          15 callgsubr
        </CharString>
        <CharString name="comma.dnom">
          -2 70 callgsubr
          -104 -56 callsubr
        </CharString>
        <CharString name="comma.numr">
          268 70 callgsubr
          166 -56 callsubr
        </CharString>
        <CharString name="comma.subs">
          -172 70 callgsubr
          -274 -56 callsubr
        </CharString>
        <CharString name="comma.sups">
          438 70 callgsubr
          336 -56 callsubr
        </CharString>
        <CharString name="copyright">
          -12 26 110 30 324 30 118 26 hstem
          40 30 82 34 344 30 vstem
          40 322 -23 callsubr
          82 hmoveto
          -126 70 -72 82 56 30 22 28 30 vhcurveto
          -16 22 rlineto
          -23 -26 -30 -19 -42 hhcurveto
          -72 -48 64 104 94 52 62 70 34 22 -13 -23 26 hvcurveto
          18 22 rlineto
          26 -26 -28 18 -44 hhcurveto
          -84 -74 -70 -116 hvcurveto
          endchar
        </CharString>
        <CharString name="currency">
          138 28 326 28 104 callgsubr
          288 32 vstem
          96 98 rmoveto
          85 88 rlineto
          -31 32 42 -17 45 hhcurveto
          44 43 17 31 31 hvcurveto
          86 -88 20 22 -86 88 rlineto
          23 32 15 41 47 vvcurveto
          49 -15 42 -24 32 vhcurveto
          87 89 -20 22 -86 -89 rlineto
          30 -32 -42 17 -44 hhcurveto
          -45 -42 -17 -30 -31 hvcurveto
          -86 89 -20 -22 86 -89 rlineto
          -24 -32 -14 -42 -49 vvcurveto
          -47 14 -41 24 -32 vhcurveto
          -86 -88 rlineto
          80 208 rmoveto
          96 66 68 78 78 66 -68 -96 -96 -66 -66 -78 -78 -66 66 96 vhcurveto
          endchar
        </CharString>
        <CharString name="d">
          -12 29 callgsubr
          hintmask 10111100
          -8 callsubr
          hintmask 01111100
          -12 callsubr
          hintmask 10111100
          -61 callsubr
          endchar
        </CharString>
        <CharString name="d.sups">
          10 callsubr
          144 418 rmoveto
          -107 55 -59 84 45 38 23 26 28 vhcurveto
          1 hlineto
          4 -41 rlineto
          27 474 -32 -130 hlineto
          2 -58 rlineto
          25 -34 -28 14 -41 hhcurveto
          -80 -69 -64 -103 hvcurveto
          33 hmoveto
          79 51 60 67 -17 callgsubr
          endchar
        </CharString>
        <CharString name="dagger">
          533 11 callsubr
          284 -80 rmoveto
          32 hlineto
          -2 614 28 callgsubr
          rlineto
          endchar
        </CharString>
        <CharString name="daggerdbl">
          69 30 434 11 callsubr
          158 68 rmoveto
          128 2 -2 -150 rlineto
          32 hlineto
          -2 150 128 -2 rlineto
          32 vlineto
          -128 -2 2 218 -2 218 28 callgsubr
          -2 -218 2 -218 -128 2 rlineto
          endchar
        </CharString>
        <CharString name="dcaron">
          -12 29 callgsubr
          48 29 hintmask 10111110
          -8 callsubr
          hintmask 01111110
          -12 callsubr
          hintmask 10111110
          -61 callsubr
          459 310 -3 callsubr
        </CharString>
        <CharString name="dcroat">
          -12 28 5 -21 442 28 114 28 -28 138 40 callsubr
          hintmask 10110110
          460 110 rmoveto
          -60 -57 -60 -34 -59 hhcurveto
          -114 -68 86 126 117 86 97 108 53 53 -21 -55 58 hvcurveto
          30 246 rmoveto
          hintmask 10101110
          110 -30 vlineto
          hintmask 10110110
          -110 -188 -28 188 -84 vlineto
          50 callsubr
          -121 -107 -94 -148 -156 86 -84 126 70 63 41 45 43 hvcurveto
          2 hlineto
          hintmask 01110110
          4 -74 rlineto
          26 584 hlineto
          76 4 rlineto
          24 vlineto
          endchar
        </CharString>
        <CharString name="degree">
          454 26 178 26 hstem
          190 28 164 28 vstem
          300 454 rmoveto
          56 54 42 72 74 -54 42 -56 -56 -54 -42 -74 -72 54 -42 56 hvcurveto
          26 vmoveto
          -48 -34 38 50 52 34 38 48 48 34 -38 -52 -50 -34 -38 -48 hvcurveto
          endchar
        </CharString>
        <CharString name="dieresis">
          602 72 hstem
          180 68 104 68 vstem
          214 602 -94 callsubr
        </CharString>
        <CharString name="divide">
          114 70 132 28 130 70 hstem
          268 64 vstem
          300 474 rmoveto
          18 14 14 22 20 -14 14 -18 -18 -14 -14 -20 -22 14 -14 18 hvcurveto
          -32 -324 rmoveto
          -22 14 -14 18 18 14 14 22 20 -14 14 -18 -18 -14 -14 -20 vhcurveto
          -170 166 rmoveto
          32 callsubr
          endchar
        </CharString>
        <CharString name="dollar">
          34 28 528 28 79 callsubr
          129 30 147 32 vstem
          480 548 rmoveto
          -39 36 -42 30 -76 4 rrcurveto
          132 -30 -132 vlineto
          -91 -6 -70 -53 -83 -166 338 28 -156 vvcurveto
          -70 -56 -50 -103 -85 -66 38 34 -40 vhcurveto
          -18 -22 42 -35 66 -38 83 -4 rlinecurve
          -145 30 144 vlineto
          98 4 81 56 90 184 -338 -32 142 vvcurveto
          68 57 44 85 76 34 -24 -38 44 vhcurveto
          endchar
        </CharString>
        <CharString name="dollar.a">
          34 28 528 28 79 callsubr
          306 32 vstem
          320 318 rmoveto
          78 -31 72 -33 -72 vvcurveto
          -70 -56 -50 -103 -13 -13 1 2 -12 vhcurveto
          24 296 rmoveto
          -71 27 -62 29 61 vvcurveto
          68 57 44 85 12 11 -1 -1 10 vhcurveto
          30 -5 rmoveto
          36 -10 25 -19 30 -26 20 20 rcurveline
          -29 27 -31 24 -46 12 25 137 rcurveline
          -30 4 -25 -136 rlineto
          1 -11 -12 1 -12 hhcurveto
          -99 -78 -54 -88 -80 78 -35 81 -32 hvcurveto
          -47 -259 -53 13 -42 27 -29 24 rlinecurve
          -18 -22 32 -27 47 -29 58 -13 rlinecurve
          -28 -151 30 -4 27 149 rlineto
          -2 14 14 -1 15 hhcurveto
          103 88 56 94 95 -89 37 -87 34 hvcurveto
          endchar
        </CharString>
        <CharString name="dong">
          0 28 78 28 310 28 94 28 104 callgsubr
          264 30 vstem
          134 hmoveto
          346 28 -346 hlineto
          286 172 rmoveto
          -46 -43 -44 -20 -43 hhcurveto
          -86 -48 64 98 80 60 68 78 50 30 -16 -38 46 hvcurveto
          30 204 rmoveto
          82 -30 -82 -156 -28 156 -50 vlineto
          4 -96 rlineto
          32 -39 -33 20 -56 hhcurveto
          -91 -81 -70 -108 -122 64 -66 100 56 41 26 32 33 hvcurveto
          4 hlineto
          4 -48 rlineto
          24 450 hlineto
          82 4 rlineto
          24 vlineto
          endchar
        </CharString>
        <CharString name="dotaccent">
          600 84 126 callgsubr
          600 -105 callsubr
        </CharString>
        <CharString name="dotlessi">
          52 callsubr
          hstem
          346 30 vstem
          -67 callgsubr
          endchar
        </CharString>
        <CharString name="e">
          -33 callsubr
          hstem
          80 32 388 30 vstem
          -107 callgsubr
          endchar
        </CharString>
        <CharString name="e.sups">
          252 27 135 24 120 27 -69 callgsubr
          endchar
        </CharString>
        <CharString name="eacute">
          -33 callsubr
          hstem
          80 32 388 30 vstem
          -107 callgsubr
          -104 440 -64 callgsubr
        </CharString>
        <CharString name="eacute.sups">
          252 27 135 24 120 27 53 91 -69 callgsubr
          -42 291 rmoveto
          -37 hlineto
          -62 -91 rlineto
          27 hlineto
          endchar
        </CharString>
        <CharString name="ebreve">
          -33 callsubr
          86 26 hstem
          80 32 88 72 callsubr
          68 30 vstem
          -107 callgsubr
          -184 310 -97 callgsubr
        </CharString>
        <CharString name="ecaron">
          -33 callsubr
          82 32 hstem
          80 32 388 30 vstem
          -107 callgsubr
          -198 306 rmoveto
          -86 callgsubr
        </CharString>
        <CharString name="ecircumflex">
          -33 callsubr
          184 32 hstem
          80 32 388 30 vstem
          -107 callgsubr
          -292 306 -23 callgsubr
          19 callsubr
        </CharString>
        <CharString name="edieresis">
          -33 callsubr
          112 72 hstem
          80 32 85 68 104 68 63 30 vstem
          -107 callgsubr
          -269 336 -94 callsubr
        </CharString>
        <CharString name="edotaccent">
          -33 callsubr
          110 84 hstem
          80 32 164 80 144 30 vstem
          -107 callgsubr
          -184 334 -105 callsubr
        </CharString>
        <CharString name="egrave">
          -33 callsubr
          hstem
          80 32 388 30 vstem
          -107 callgsubr
          -160 306 -47 callgsubr
        </CharString>
        <CharString name="egrave.sups">
          252 27 135 24 120 27 53 91 -69 callgsubr
          -92 200 rmoveto
          27 hlineto
          -61 91 rlineto
          -38 hlineto
          endchar
        </CharString>
        <CharString name="eight">
          -68 callgsubr
        </CharString>
        <CharString name="eight.dnom">
          -12 -12 callgsubr
          74 -91 callsubr
        </CharString>
        <CharString name="eight.numr">
          328 -12 callgsubr
          414 -91 callsubr
        </CharString>
        <CharString name="eight.onum">
          -68 callgsubr
        </CharString>
        <CharString name="eight.subs">
          -182 -12 callgsubr
          -96 -91 callsubr
        </CharString>
        <CharString name="eight.sups">
          428 -12 callgsubr
          514 -91 callsubr
        </CharString>
        <CharString name="ellipsis">
          -12 117 hstem
          58 104 86 104 86 104 vstem
          58 46 rmoveto
          20 callgsubr
          190 hmoveto
          20 callgsubr
          190 hmoveto
          20 callgsubr
          endchar
        </CharString>
        <CharString name="emacron">
          -33 callsubr
          118 28 hstem
          80 32 388 30 vstem
          -107 callgsubr
          -294 342 -59 callgsubr
          endchar
        </CharString>
        <CharString name="emdash">
          56 callgsubr
        </CharString>
        <CharString name="endash">
          54 callsubr
        </CharString>
        <CharString name="eogonek">
          103 callgsubr
          -25 callgsubr
          hstem
          80 32 244 30 114 30 vstem
          496 70 rmoveto
          -32 -45 -53 -22 -66 hhcurveto
          -132 -88 94 128 hvcurveto
          416 hlineto
          2 12 0 10 10 vvcurveto
          138 -84 82 -128 -121 -117 -96 -156 -156 114 -94 136 34 30 2 16 36 vhcurveto
          -32 -26 -42 -48 -54 vvcurveto
          -54 34 -80 callgsubr
          -24 18 36 47 30 49 94 68 hvcurveto
          -398 222 rmoveto
          120 14 91 76 101 hhcurveto
          108 74 -66 -130 hvcurveto
          endchar
        </CharString>
        <CharString name="equal">
          216 28 172 28 hstem
          98 404 vstem
          98 416 rmoveto
          32 callsubr
          -228 vmoveto
          32 callsubr
          endchar
        </CharString>
        <CharString name="estimated">
          -12 20 308 18 306 20 hstem
          26 130 290 128 vstem
          164 68 rmoveto
          -4 6 -4 6 8 vvcurveto
          224 vlineto
          2 2 2 2 vhcurveto
          414 hlineto
          2 0 4 2 vvcurveto
          186 -123 150 -151 -151 -123 -150 -186 -186 123 -150 151 90 78 52 80 54 vhcurveto
          -38 hlineto
          -68 -46 -66 -44 -70 hhcurveto
          -54 -50 22 38 -34 hvcurveto
          -4 266 rmoveto
          -2 -2 2 4 hvcurveto
          220 vlineto
          7 4 9 4 6 vhcurveto
          36 34 50 22 54 hhcurveto
          50 50 -20 -34 34 hvcurveto
          6 -6 4 -8 -8 vvcurveto
          -224 vlineto
          -4 -2 -2 -4 vhcurveto
          endchar
        </CharString>
        <CharString name="eth">
          -12 28 396 28 282 -20 hstem
          70 32 390 32 vstem
          300 16 rmoveto
          -109 -89 84 118 102 64 92 136 61 72 -29 -79 55 hvcurveto
          1 -17 1 -18 -19 vvcurveto
          -128 -55 -106 -137 vhcurveto
          202 662 rmoveto
          -12 22 -133 -70 -45 37 -51 29 -55 26 rlinecurve
          -16 -22 51 -25 47 -27 41 -32 rlinecurve
          -141 -74 12 -22 150 79 69 -60 49 -77 17 -114 rlinecurve
          52 -43 -67 40 -71 hhcurveto
          -144 -90 -92 -130 -144 111 -86 119 134 90 102 160 168 -58 113 -89 82 hvcurveto
          endchar
        </CharString>
        <CharString name="exclam">
          -12 116 -95 -21 682 -20 hstemhm
          248 104 -66 28 hintmask 01101000
          288 214 rmoveto
          24 hlineto
          2 394 rlineto
          62 -28 -62 vlineto
          hintmask 01110000
          -38 -562 133 callgsubr
          hintmask 10110000
          38 -26 20 -26 vhcurveto
          hintmask 01110000
          -26 -26 -20 -38 hvcurveto
          endchar
        </CharString>
        <CharString name="exclamdown">
          374 116 0 -20 hstemhm
          248 104 -66 28 hintmask 01010000
          312 264 rmoveto
          -24 hlineto
          -2 -394 rlineto
          -62 28 62 vlineto
          hintmask 01100000
          38 562 134 callgsubr
          hintmask 10100000
          91 callsubr
          vhcurveto
          hintmask 01100000
          26 26 20 38 hvcurveto
          endchar
        </CharString>
        <CharString name="f">
          52 callsubr
          228 28 hstem
          266 28 vstem
          572 704 rmoveto
          24 -50 -41 6 -41 hhcurveto
          -116 -58 -70 -122 hvcurveto
          -64 vlineto
          -146 -4 rlineto
          -24 146 -450 28 450 230 28 -230 68 vlineto
          94 40 66 106 46 28 -4 -22 46 vhcurveto
          endchar
        </CharString>
        <CharString name="f.sups">
          550 27 138 27 hstem
          293 31 vstem
          499 726 rmoveto
          12 -31 -26 4 -28 hhcurveto
          -81 -40 -48 -80 hvcurveto
          -37 vlineto
          -83 -2 rlineto
          -25 83 -290 31 290 142 27 -142 40 vlineto
          58 25 40 67 28 19 -3 -11 27 vhcurveto
          endchar
        </CharString>
        <CharString name="fi">
          52 callsubr
          122 83 23 28 hstemhm
          154 30 211 80 -55 30 hintmask 11011010
          154 478 rmoveto
          -66 -4 rlineto
          -24 66 8 callgsubr
          266 -596 rmoveto
          30 478 -30 hlineto
          hintmask 11111100
          15 205 rmoveto
          -21 -19 -16 -26 -25 19 -16 21 21 19 16 25 26 -19 16 -21 hvcurveto
          endchar
        </CharString>
        <CharString name="figuredash">
          54 callsubr
        </CharString>
        <CharString name="five">
          -12 94 callgsubr
          74 -34 callsubr
        </CharString>
        <CharString name="five.dnom">
          -12 17 callgsubr
          52 -85 callsubr
          endchar
        </CharString>
        <CharString name="five.numr">
          328 17 callgsubr
          392 -85 callsubr
          endchar
        </CharString>
        <CharString name="five.onum">
          -82 94 callgsubr
          4 -34 callsubr
        </CharString>
        <CharString name="five.subs">
          -182 17 callgsubr
          -118 -85 callsubr
          endchar
        </CharString>
        <CharString name="five.sups">
          428 17 callgsubr
          492 -85 callsubr
          endchar
        </CharString>
        <CharString name="fiveeighths">
          -12 138 callgsubr
          16 26 152 26 80 28 hstemhm
          246 30 46 30 -16 138 callsubr
          -18 30 hintmask 1011111001000000
          38 392 -85 callsubr
          2 -374 -89 callgsubr
          -210 -528 rmoveto
          30 21 27 43 19 vhcurveto
          55 -17 57 -11 -49 vvcurveto
          -35 -44 -24 -44 -49 -39 27 33 vhcurveto
          hintmask 0100000110000000
          -75 callsubr
          hintmask 1000001001000000
          -65 callsubr
          hintmask 0100000110000000
          -71 callgsubr
          hintmask 1000001001000000
          -36 -17 -32 -26 -41 vvcurveto
          endchar
        </CharString>
        <CharString name="fl">
          -12 28 5 92 callgsubr
          228 28 -12 -20 hstemhm
          159 30 218 30 hintmask 10110110
          159 478 rmoveto
          -66 -4 rlineto
          -24 66 vlineto
          hintmask 01110110
          8 callgsubr
          hintmask 10101110
          316 -578 rmoveto
          -2 -10 -4 0 -4 hhcurveto
          -12 -8 10 20 hvcurveto
          676 -30 -670 vlineto
          -46 18 -18 30 12 6 2 2 8 vhcurveto
          endchar
        </CharString>
        <CharString name="four">
          21 -21 196 29 362 54 0 -20 hstemhm
          390 30 hintmask 11011000
          92 225 rmoveto
          hintmask 11101000
          236 281 20 27 21 27 20 27 130 callgsubr
          -271 vlineto
          145 hmoveto
          -115 416 -15 hlineto
          -362 -428 rlineto
          -17 347 -196 30 196 115 vlineto
          endchar
        </CharString>
        <CharString name="four.dnom">
          83 30 callsubr
          107 -58 callsubr
        </CharString>
        <CharString name="four.numr">
          423 30 callsubr
          447 -58 callsubr
        </CharString>
        <CharString name="four.onum">
          104 29 384 54 0 -20 hstemhm
          390 30 hintmask 10110000
          90 133 rmoveto
          hintmask 11010000
          238 297 20 27 22 31 19 29 130 callgsubr
          -293 vlineto
          145 hmoveto
          -115 438 -15 hlineto
          -362 -450 rlineto
          -17 347 -174 30 174 115 vlineto
          endchar
        </CharString>
        <CharString name="four.subs">
          -87 30 callsubr
          -63 -58 callsubr
        </CharString>
        <CharString name="four.sups">
          523 30 callsubr
          547 -58 callsubr
        </CharString>
        <CharString name="fraction">
          36 588 hstem
          38 524 vstem
          64 36 -89 callgsubr
          endchar
        </CharString>
        <CharString name="g">
          -49 callgsubr
          37 callgsubr
          hintmask 1111010110000000
          -96 callsubr
          hintmask 1111001110000000
          -82 callgsubr
          hintmask 1110101110000000
          -83 callsubr
          hintmask 1111010110000000
          38 callsubr
          hintmask 1110101110000000
          -71 callsubr
          endchar
        </CharString>
        <CharString name="g.a">
          -41 callgsubr
          40 callsubr
          hintmask 11101100
          -74 callgsubr
          hintmask 11011100
          526 -26 vlineto
          hintmask 11101100
          -102 callgsubr
          endchar
        </CharString>
        <CharString name="g.supa">
          110 26 124 28 269 28 hstem
          144 33 217 32 vstem
          183 169 rmoveto
          -14 -25 rlineto
          -21 34 40 -13 45 hhcurveto
          87 51 48 76 hvcurveto
          343 -28 vlineto
          -4 -29 rlineto
          -1 hlineto
          23 -31 -29 14 -40 hhcurveto
          -79 -70 -62 -101 -104 55 -58 84 45 39 23 26 27 hvcurveto
          -71 vlineto
          -63 -36 -39 -70 -35 -36 10 23 -34 vhcurveto
          105 119 rmoveto
          -71 -40 54 81 76 51 58 67 33 30 -11 -29 36 hvcurveto
          -177 vlineto
          -34 -35 -34 -18 -37 hhcurveto
          endchar
        </CharString>
        <CharString name="g.sups">
          108 25 126 30 72 25 165 26 -17 25 hstemhm
          162 30 -9 32 173 31 30 32 hintmask 1111010110000000
          192 200 rmoveto
          22 13 23 38 20 vhcurveto
          -5 15 16 -1 16 hhcurveto
          75 hlineto
          56 28 -11 -35 -39 -53 -41 -88 -79 -37 29 38 hvcurveto
          -30 hmoveto
          -56 48 -36 100 105 66 53 56 51 -36 21 -82 vhcurveto
          hintmask 1111001100000000
          -79 hlineto
          -45 -26 13 30 17 12 15 18 11 hvcurveto
          -9 20 19 -5 20 hhcurveto
          66 51 45 66 33 -16 27 -19 19 hvcurveto
          96 26 -134 hlineto
          hintmask 1110101100000000
          6 -12 -15 2 -17 hhcurveto
          -66 -53 -47 -66 -38 18 -27 21 -17 hvcurveto
          -3 vlineto
          -25 -17 -14 -22 -21 vvcurveto
          -26 17 -17 16 -8 vhcurveto
          -2 vlineto
          hintmask 1111010110000000
          -34 -21 -20 -29 -24 vvcurveto
          hintmask 1111001100000000
          140 186 rmoveto
          -49 -38 35 51 51 38 37 49 48 38 -37 -51 -51 -38 -35 -48 hvcurveto
          endchar
        </CharString>
        <CharString name="gbreve">
          -49 callgsubr
          86 26 hstemhm
          88 32 2 32 40 72 callsubr
          12 32 58 32 hintmask 1111011000110000
          -96 callsubr
          hintmask 1111010100110000
          -82 callgsubr
          hintmask 1110110100110000
          -83 callsubr
          hintmask 1111011000110000
          38 callsubr
          hintmask 1110110110110000
          -71 callsubr
          14 396 rmoveto
          hintmask 1111010111110000
          -98 callsubr
          hintmask 1110110110110000
          -48 6 30 -68 80 hhcurveto
          endchar
        </CharString>
        <CharString name="gbreve.a">
          -41 callgsubr
          118 136 callsubr
          88 72 callsubr
          38 30 hintmask 1110110010000000
          -74 callgsubr
          hintmask 1101110010000000
          526 -26 vlineto
          hintmask 1110110010000000
          -102 callgsubr
          hintmask 1110111110000000
          22 550 -97 callgsubr
        </CharString>
        <CharString name="gcaron">
          -49 callgsubr
          82 32 37 callgsubr
          hintmask 1111001011000000
          -96 callsubr
          hintmask 1111000111000000
          -82 callgsubr
          hintmask 1110100111000000
          -83 callsubr
          hintmask 1111001011000000
          38 callsubr
          hintmask 1110110111000000
          -71 callsubr
          392 vmoveto
          -86 callgsubr
        </CharString>
        <CharString name="gcaron.a">
          -41 callgsubr
          114 32 40 callsubr
          hintmask 11100110
          -74 callgsubr
          hintmask 11010110
          526 -26 vlineto
          hintmask 11100110
          -102 callgsubr
          hintmask 11101110
          8 546 rmoveto
          -86 callgsubr
        </CharString>
        <CharString name="gcircumflex">
          -49 callgsubr
          184 32 37 callgsubr
          hintmask 1111001011000000
          -96 callsubr
          hintmask 1111000111000000
          -82 callgsubr
          hintmask 1110100111000000
          -83 callsubr
          hintmask 1111001011000000
          38 callsubr
          hintmask 1110110111000000
          -71 callsubr
          -94 392 -23 callgsubr
          19 callsubr
        </CharString>
        <CharString name="gcircumflex.a">
          -41 callgsubr
          216 32 40 callsubr
          hintmask 11100110
          -74 callgsubr
          hintmask 11010110
          526 -26 vlineto
          hintmask 11100110
          -102 callgsubr
          -86 546 -23 callgsubr
          hintmask 11101110
          19 callsubr
        </CharString>
        <CharString name="gdotaccent">
          -49 callgsubr
          110 84 hstemhm
          88 32 2 32 116 80 88 32 58 32 hintmask 1111001001100000
          -96 callsubr
          hintmask 1111000101100000
          -82 callgsubr
          hintmask 1110100101100000
          -83 callsubr
          hintmask 1111001001100000
          38 callsubr
          hintmask 1110110111100000
          -71 callsubr
          14 420 -105 callsubr
        </CharString>
        <CharString name="gdotaccent.a">
          -41 callgsubr
          142 84 hstemhm
          70 32 164 80 114 30 hintmask 11100101
          -74 callgsubr
          hintmask 11010101
          526 -26 vlineto
          hintmask 11100101
          -102 callgsubr
          hintmask 11101111
          22 574 -105 callsubr
        </CharString>
        <CharString name="germandbls">
          -12 28 5 -21 706 28 hstemhm
          110 30 148 32 82 32 92 32 hintmask 01111110
          110 hmoveto
          30 524 hlineto
          124 61 58 87 74 40 -46 -60 vhcurveto
          -92 -114 -32 -100 -146 238 40 -148 vvcurveto
          hintmask 10111110
          -54 -40 -52 -81 -49 -38 16 32 -42 vhcurveto
          -19 -24 rlineto
          -32 39 51 -20 57 hhcurveto
          87 67 58 78 hvcurveto
          170 -238 -38 122 84 114 36 104 vvcurveto
          74 -57 58 -87 -103 -77 -74 -122 vhcurveto
          endchar
        </CharString>
        <CharString name="grave">
          572 134 hstem
          220 132 vstem
          324 572 -47 callgsubr
        </CharString>
        <CharString name="greater">
          62 540 hstem
          444 32 vstem
          476 348 rmoveto
          -362 254 rlineto
          -36 vlineto
          330 -232 rlineto
          -4 vlineto
          -330 -232 rlineto
          -36 vlineto
          362 254 rlineto
          endchar
        </CharString>
        <CharString name="greaterequal">
          0 28 hstem
          470 32 vstem
          98 hmoveto
          32 callsubr
          404 322 rmoveto
          -404 162 rlineto
          -32 vlineto
          240 -94 132 -52 rlineto
          -4 vlineto
          -132 -52 -240 -94 rlineto
          -32 vlineto
          404 162 rlineto
          endchar
        </CharString>
        <CharString name="guillemotleft">
          74 356 hstem
          115 32 168 32 vstem
          253 74 8 callsubr
          338 -164 8 callsubr
          endchar
        </CharString>
        <CharString name="guillemotright">
          74 356 hstem
          253 32 168 32 vstem
          127 90 7 callgsubr
          74 -162 7 callgsubr
          endchar
        </CharString>
        <CharString name="guilsinglleft">
          74 356 hstem
          215 32 vstem
          353 74 8 callsubr
          endchar
        </CharString>
        <CharString name="guilsinglright">
          74 356 hstem
          353 32 vstem
          227 90 7 callgsubr
          endchar
        </CharString>
        <CharString name="h">
          21 -35 callgsubr
          232 -20 hstem
          110 139 callgsubr
          vstem
          -95 callgsubr
          -66 -63 vhcurveto
          2 130 rlineto
          214 -30 vlineto
          endchar
        </CharString>
        <CharString name="h.sups">
          -1 callsubr
          -37 -38 vhcurveto
          2 76 rlineto
          137 -32 vlineto
          endchar
        </CharString>
        <CharString name="hbar">
          21 -21 442 28 114 28 -28 138 hstemhm
          110 139 callgsubr
          hintmask 11101100
          140 488 rmoveto
          96 236 28 -236 vlineto
          hintmask 11011100
          110 -30 vlineto
          hintmask 11101100
          -110 vlineto
          -78 -4 rlineto
          -24 78 -584 30 326 vlineto
          78 74 50 38 72 hhcurveto
          101 43 -55 -113 hvcurveto
          -274 30 278 vlineto
          131 -57 61 -117 -78 -57 -46 -66 -63 vhcurveto
          endchar
        </CharString>
        <CharString name="hcircumflex">
          21 -35 callgsubr
          232 -20 120 30 hstem
          110 139 callgsubr
          vstem
          -95 callgsubr
          -66 -63 vhcurveto
          2 130 rlineto
          214 -30 vlineto
          -48 26 -86 callsubr
          endchar
        </CharString>
        <CharString name="hungarumlaut">
          570 136 hstem
          224 236 vstem
          224 570 -27 callgsubr
        </CharString>
        <CharString name="hyphen">
          9 callsubr
        </CharString>
        <CharString name="hyphen.a">
          45 callsubr
        </CharString>
        <CharString name="i">
          52 callsubr
          122 84 hstemhm
          310 80 -44 30 hintmask 11101000
          -67 callgsubr
          hintmask 11110000
          4 callgsubr
          endchar
        </CharString>
        <CharString name="i.sups">
          550 27 76 65 hstemhm
          316 65 -47 31 hintmask 10010000
          180 550 rmoveto
          154 -290 31 317 -185 hlineto
          hintmask 11100000
          43 callgsubr
        </CharString>
        <CharString name="iacute">
          52 callsubr
          hstem
          346 30 vstem
          -67 callgsubr
          330 228 -64 callgsubr
        </CharString>
        <CharString name="icircumflex">
          52 callsubr
          196 32 hstem
          346 30 vstem
          -67 callgsubr
          142 94 -23 callgsubr
          19 callsubr
        </CharString>
        <CharString name="idieresis">
          52 callsubr
          124 72 hstemhm
          230 68 48 30 26 68 hintmask 11111000
          -67 callgsubr
          164 124 rmoveto
          20 14 16 20 20 -14 16 -20 -20 -14 -16 -20 -20 14 -16 20 hvcurveto
          hintmask 11111100
          172 hmoveto
          20 14 16 20 20 -14 16 -20 -20 -14 -16 -20 -20 14 -16 20 hvcurveto
          endchar
        </CharString>
        <CharString name="igrave">
          52 callsubr
          hstem
          346 30 vstem
          -67 callgsubr
          274 94 -47 callgsubr
        </CharString>
        <CharString name="imacron">
          52 callsubr
          130 28 hstem
          346 30 vstem
          -67 callgsubr
          140 130 -59 callgsubr
          endchar
        </CharString>
        <CharString name="infinity">
          174 32 -18 28 224 32 -12 28 hstemhm
          4 30 532 30 hintmask 01011100
          130 188 rmoveto
          75 47 66 46 28 hvcurveto
          4 hlineto
          hintmask 10011100
          -80 50 46 -46 74 hhcurveto
          86 56 70 88 92 -58 64 -88 -75 -53 -60 -70 -38 hvcurveto
          -4 hlineto
          hintmask 10101100
          56 -30 -45 58 -69 hhcurveto
          -71 -61 -56 -86 hvcurveto
          hintmask 01011100
          -82 59 -60 67 vhcurveto
          hintmask 10011100
          170 144 rmoveto
          90 47 45 38 56 hhcurveto
          75 43 -57 -73 -68 -40 -56 -70 -55 -45 28 98 -56 hvcurveto
          hintmask 01101100
          -166 -116 rmoveto
          -53 -47 46 70 70 43 38 57 48 39 -34 -78 43 hvcurveto
          -70 -33 -43 -42 -54 hhcurveto
          endchar
        </CharString>
        <CharString name="integral">
          -158 28 890 28 hstemhm
          281 30 16 28 hintmask 11010000
          223 -126 rmoveto
          -6 -26 rlineto
          -4 8 14 -2 18 hhcurveto
          80 18 92 122 hvcurveto
          hintmask 11110000
          134 -44 246 140 vvcurveto
          110 10 74 58 14 12 -2 -2 8 vhcurveto
          6 26 rlineto
          4 -6 -16 2 -16 hhcurveto
          -82 -18 -94 -120 hvcurveto
          hintmask 11010000
          -134 46 -248 -140 vvcurveto
          -110 -10 -72 -60 -14 -12 2 2 -8 vhcurveto
          endchar
        </CharString>
        <CharString name="iogonek">
          -202 28 195 92 callgsubr
          122 84 hstemhm
          286 30 -6 80 -44 30 hintmask 11110010
          346 hmoveto
          2 hlineto
          hintmask 11111010
          -30 -34 -32 -38 -50 vvcurveto
          -54 34 -80 callgsubr
          -24 18 36 hvcurveto
          hintmask 11110010
          90 callsubr
          hintmask 11110100
          4 150 -105 callsubr
        </CharString>
        <CharString name="iogonek.d">
          -202 28 195 92 callgsubr
          hstemhm
          286 30 30 30 hintmask 11101000
          346 hmoveto
          2 hlineto
          hintmask 11111000
          -30 -34 -32 -38 -50 vvcurveto
          -54 34 -80 callgsubr
          -24 18 36 hvcurveto
          hintmask 11101000
          90 callsubr
          endchar
        </CharString>
        <CharString name="itilde">
          52 callsubr
          104 137 callgsubr
          232 24 90 30 68 24 hintmask 11011110
          -67 callgsubr
          132 104 rmoveto
          -44 callsubr
          hintmask 11111110
          -79 callgsubr
          hintmask 11011110
          -51 callgsubr
          endchar
        </CharString>
        <CharString name="j">
          -234 28 656 28 122 84 hstemhm
          310 80 -44 30 hintmask 11001000
          -45 callgsubr
          hintmask 11110000
          4 callgsubr
          endchar
        </CharString>
        <CharString name="j.sups">
          109 28 413 27 76 65 hstemhm
          305 65 -47 31 hintmask 11001000
          169 550 rmoveto
          154 -317 hlineto
          -58 -20 -38 -74 -24 -27 8 11 -20 vhcurveto
          -12 -25 rlineto
          -12 22 31 -10 29 hhcurveto
          96 30 50 78 hvcurveto
          340 -185 vlineto
          hintmask 11110000
          43 callgsubr
        </CharString>
        <CharString name="jcircumflex">
          -234 28 656 28 196 32 hstem
          346 30 vstem
          -45 callgsubr
          142 94 -23 callgsubr
          19 callsubr
        </CharString>
        <CharString name="k">
          21 -5 callsubr
          264 -20 hstem
          130 3 callsubr
          endchar
        </CharString>
        <CharString name="k.sups">
          260 474 hstem
          212 32 vstem
          212 260 rmoveto
          32 88 hlineto
          90 85 129 -173 rlineto
          37 hlineto
          -145 194 124 123 rlineto
          -38 hlineto
          -196 -188 rlineto
          -1 345 -32 hlineto
          endchar
        </CharString>
        <CharString name="kgreenlandic">
          21 -5 callsubr
          hstem
          130 30 vstem
          130 hmoveto
          30 136 hlineto
          148 140 220 -276 rlineto
          36 hlineto
          -232 294 198 184 rlineto
          -40 hlineto
          -328 -302 -2 -2 rlineto
          304 -30 vlineto
          endchar
        </CharString>
        <CharString name="l">
          -12 28 678 28 hstem
          280 30 vstem
          97 -87 callgsubr
          endchar
        </CharString>
        <CharString name="l.sups">
          252 28 427 27 hstem
          299 32 vstem
          207 707 rmoveto
          92 -356 hlineto
          -68 29 -31 55 27 19 7 6 22 vhcurveto
          -8 26 rlineto
          -8 -24 -14 -3 -17 hhcurveto
          -38 -19 21 46 hvcurveto
          387 -124 vlineto
          endchar
        </CharString>
        <CharString name="lacute">
          -12 28 678 28 hstem
          280 30 vstem
          97 -87 callgsubr
          295 142 -57 callsubr
          endchar
        </CharString>
        <CharString name="lcaron">
          -12 28 678 28 hstem
          280 30 81 29 vstem
          97 -87 callgsubr
          317 -174 -3 callsubr
        </CharString>
        <CharString name="ldot">
          -12 28 284 84 310 28 hstem
          250 30 90 80 vstem
          67 -87 callgsubr
          343 -422 -105 callsubr
        </CharString>
        <CharString name="less">
          62 540 104 callgsubr
          vstem
          124 316 rmoveto
          362 -254 rlineto
          36 vlineto
          -330 232 rlineto
          4 vlineto
          330 232 rlineto
          36 vlineto
          -362 -254 rlineto
          endchar
        </CharString>
        <CharString name="lessequal">
          0 28 hstem
          98 32 vstem
          98 hmoveto
          32 callsubr
          286 vmoveto
          404 -162 rlineto
          32 vlineto
          -240 94 -132 52 rlineto
          4 vlineto
          132 52 240 94 rlineto
          32 vlineto
          -404 -162 rlineto
          endchar
        </CharString>
        <CharString name="lira">
          0 28 222 28 68 28 250 28 hstemhm
          87 66 -1 29 35 28 hintmask 11111010
          107 callsubr
          11 -1 11 -1 10 vhcurveto
          188 28 -193 hlineto
          -5 24 -7 22 -8 22 rrcurveto
          213 28 hlineto
          hintmask 11110110
          -223 hlineto
          -14 38 -12 36 40 33 callgsubr
          -39 11 -36 13 -37 hvcurveto
          -92 -2 rlineto
          -26 102 vlineto
          9 -22 8 -23 5 -23 rrcurveto
          -30 hlineto
          -94 -4 rlineto
          -24 130 vlineto
          1 -11 1 -10 -11 vvcurveto
          hintmask 11111010
          98 callsubr
        </CharString>
        <CharString name="logicalnot">
          316 28 hstem
          470 32 vstem
          98 316 rmoveto
          372 -204 32 232 -404 hlineto
          endchar
        </CharString>
        <CharString name="lozenge">
          -10 26 628 26 hstem
          114 372 vstem
          280 -10 rmoveto
          40 hlineto
          166 340 -166 340 rlineto
          -40 hlineto
          -166 -340 rlineto
          184 -314 rmoveto
          -70 142 -80 172 80 170 70 144 -15 callsubr
          70 -144 80 -170 -80 -172 -70 -142 rlineto
          endchar
        </CharString>
        <CharString name="lslash">
          -12 28 678 28 hstem
          280 30 vstem
          520 43 rmoveto
          -19 -40 -31 -8 -32 hhcurveto
          -72 -35 38 78 hvcurveto
          263 vlineto
          174 99 rlineto
          32 vlineto
          -174 -99 rlineto
          295 -213 -28 183 -285 vlineto
          -132 -77 rlineto
          -32 vlineto
          132 77 rlineto
          -239 vlineto
          -107 49 -43 86 46 33 15 15 38 vhcurveto
          endchar
        </CharString>
        <CharString name="m">
          21 -35 callgsubr
          -12 -20 hstemhm
          80 30 186 30 186 30 cntrmask 00011100
          hintmask 11011100
          -28 callgsubr
          hintmask 10111100
          -4 66 rlineto
          -26 hlineto
          endchar
        </CharString>
        <CharString name="m.sups">
          557 28 hstem
          143 31 113 29 113 31 vstem
          143 260 rmoveto
          31 238 hlineto
          39 21 19 135 callgsubr
          29 238 vlineto
          39 20 20 135 callgsubr
          31 230 vlineto
          63 -25 32 -44 -36 -21 -20 -36 -22 vhcurveto
          38 -9 -20 18 -35 hhcurveto
          -36 -20 -20 -31 -18 hvcurveto
          -2 hlineto
          -3 43 rlineto
          -26 hlineto
          endchar
        </CharString>
        <CharString name="macron">
          5 callgsubr
        </CharString>
        <CharString name="minus">
          9 callsubr
        </CharString>
        <CharString name="multiply">
          138 384 hstem
          116 368 vstem
          136 138 rmoveto
          164 172 164 -172 20 22 -164 170 164 170 -20 22 -164 -172 -164 172 -20 -22 164 -170 -164 -170 rlineto
          endchar
        </CharString>
        <CharString name="n">
          21 17 callsubr
          139 callgsubr
          hintmask 11011000
          -95 callgsubr
          -62 -57 vhcurveto
          -4 hlineto
          hintmask 10111000
          75 callsubr
          endchar
        </CharString>
        <CharString name="n.sups">
          -1 callsubr
          -35 -35 vhcurveto
          -3 hlineto
          -3 54 rlineto
          -27 hlineto
          endchar
        </CharString>
        <CharString name="nacute">
          21 17 callsubr
          139 callgsubr
          hintmask 11011000
          -95 callgsubr
          -62 -57 vhcurveto
          -4 hlineto
          hintmask 10111000
          75 callsubr
          290 228 -64 callgsubr
        </CharString>
        <CharString name="napostrophe">
          21 -35 callgsubr
          -12 -20 128 114 hstemhm
          96 38 46 30 320 30 hintmask 11011110
          16 398 -83 callgsubr
          212 -30 rmoveto
          hintmask 10111110
          -4 86 rlineto
          -26 -478 30 356 hlineto
          hintmask 11011110
          71 70 48 35 68 hhcurveto
          94 40 -52 -106 hvcurveto
          -304 30 308 vlineto
          124 -54 58 -110 -74 -54 -42 -56 -54 vhcurveto
          endchar
        </CharString>
        <CharString name="nbspace.frac">
          endchar
        </CharString>
        <CharString name="ncaron">
          21 -35 callgsubr
          -12 -20 114 32 hstemhm
          110 139 callgsubr
          hintmask 11011100
          -95 callgsubr
          -62 -57 vhcurveto
          -4 hlineto
          hintmask 10111100
          75 callsubr
          196 94 rmoveto
          -86 callgsubr
        </CharString>
        <CharString name="nine">
          -12 78 callsubr
          284 -46 callgsubr
        </CharString>
        <CharString name="nine.dnom">
          -12 3 callgsubr
          214 -81 callgsubr
        </CharString>
        <CharString name="nine.numr">
          328 3 callgsubr
          554 -81 callgsubr
        </CharString>
        <CharString name="nine.onum">
          -82 78 callsubr
          214 -46 callgsubr
        </CharString>
        <CharString name="nine.subs">
          -182 3 callgsubr
          44 -81 callgsubr
        </CharString>
        <CharString name="nine.sups">
          428 3 callgsubr
          654 -81 callgsubr
        </CharString>
        <CharString name="notequal">
          216 28 172 28 hstem
          98 404 vstem
          132 86 rmoveto
          34 hlineto
          80 130 rlineto
          256 28 -238 hlineto
          106 172 rlineto
          132 28 -114 hlineto
          80 130 rlineto
          -34 hlineto
          -80 -130 rlineto
          -256 -28 238 hlineto
          -106 -172 rlineto
          -132 -28 114 hlineto
          endchar
        </CharString>
        <CharString name="ntilde">
          21 -35 callgsubr
          -12 -20 124 137 callgsubr
          110 30 62 -4 callsubr
          42 30 hintmask 1100111110000000
          -95 callgsubr
          -62 -57 vhcurveto
          -4 hlineto
          hintmask 1010111110000000
          75 callsubr
          92 104 rmoveto
          -44 callsubr
          hintmask 1101111110000000
          -79 callgsubr
          hintmask 1100111110000000
          -35 -27 56 -48 hhcurveto
          hintmask 1010111110000000
          110 callsubr
        </CharString>
        <CharString name="numbersign">
          21 -21 218 28 178 28 198 -20 hstem
          100 406 vstem
          158 hmoveto
          28 hlineto
          26 218 rlineto
          156 hlineto
          -26 -218 -38 callsubr
          26 218 rlineto
          90 28 -86 hlineto
          22 178 rlineto
          84 28 -82 hlineto
          26 198 -63 callgsubr
          -26 -198 rlineto
          -156 hlineto
          26 198 -63 callgsubr
          -26 -198 rlineto
          -92 -28 90 hlineto
          -22 -178 rlineto
          -88 -28 84 hlineto
          32 28 rmoveto
          22 178 rlineto
          156 hlineto
          -22 -178 rlineto
          endchar
        </CharString>
        <CharString name="o">
          -40 callgsubr
          hstem
          70 32 396 32 vstem
          -105 callgsubr
          endchar
        </CharString>
        <CharString name="o.sups">
          -19 callsubr
        </CharString>
        <CharString name="oacute">
          -40 callgsubr
          hstem
          70 32 396 32 vstem
          -105 callgsubr
          278 468 -64 callgsubr
        </CharString>
        <CharString name="ocircumflex">
          -40 callgsubr
          184 32 hstem
          70 32 396 32 vstem
          -105 callgsubr
          90 334 -23 callgsubr
          19 callsubr
        </CharString>
        <CharString name="odieresis">
          -40 callgsubr
          112 72 hstem
          70 32 78 68 104 68 78 32 vstem
          -105 callgsubr
          112 364 -94 callsubr
        </CharString>
        <CharString name="oe">
          -12 26 224 26 199 27 hstem
          10 32 270 31 227 30 vstem
          42 239 rmoveto
          132 49 92 87 80 54 -92 -132 -132 -54 -93 -80 -87 -49 93 132 vhcurveto
          -32 hmoveto
          -159 71 -92 99 65 53 49 91 28 vhcurveto
          -91 28 53 -49 72 hhcurveto
          50 30 22 18 27 hvcurveto
          -12 22 rlineto
          -18 -28 -27 -17 -39 hhcurveto
          -94 -43 96 127 hvcurveto
          255 hlineto
          2 20 0 12 12 vvcurveto
          112 -43 96 -87 -74 -42 -54 -88 -28 vhcurveto
          91 -28 -53 51 -66 hhcurveto
          -98 -71 -92 -159 hvcurveto
          333 25 rmoveto
          117 8 38 81 79 hhcurveto
          77 25 -94 -104 hvcurveto
          endchar
        </CharString>
        <CharString name="ogonek">
          -202 28 hstem
          250 30 vstem
          250 -122 rmoveto
          -54 34 -80 callgsubr
          -24 18 36 44 32 46 48 34 hvcurveto
          -38 hlineto
          -38 -30 -34 -46 -50 vvcurveto
          endchar
        </CharString>
        <CharString name="ograve">
          -40 callgsubr
          hstem
          70 32 396 32 vstem
          -105 callgsubr
          222 334 -47 callgsubr
        </CharString>
        <CharString name="ohorn">
          -40 callgsubr
          hstemhm
          70 32 396 32 -28 30 hintmask 11110000
          300 16 -64 callsubr
          hintmask 11101000
          -77 callgsubr
          hintmask 11110000
          -10 callsubr
          hintmask 11101000
          57 13 39 28 52 -70 callgsubr
        </CharString>
        <CharString name="ohungarumlaut">
          -40 callgsubr
          80 136 hstem
          70 32 396 32 vstem
          -105 callgsubr
          122 332 -27 callgsubr
        </CharString>
        <CharString name="omacron">
          -40 callgsubr
          118 28 hstem
          70 32 396 32 vstem
          -105 callgsubr
          88 370 -59 callgsubr
          endchar
        </CharString>
        <CharString name="one">
          0 28 552 93 callsubr
          612 77 callsubr
          -552 -194 -28 408 28 vlineto
          endchar
        </CharString>
        <CharString name="one.dnom">
          245 70 callsubr
          hmoveto
          1 callgsubr
        </CharString>
        <CharString name="one.numr">
          585 70 callsubr
          340 rmoveto
          1 callgsubr
        </CharString>
        <CharString name="one.onum">
          0 28 482 93 callsubr
          542 77 callsubr
          -482 -194 -28 408 28 vlineto
          endchar
        </CharString>
        <CharString name="one.subs">
          75 70 callsubr
          -170 rmoveto
          1 callgsubr
        </CharString>
        <CharString name="one.sups">
          685 70 callsubr
          440 rmoveto
          1 callgsubr
        </CharString>
        <CharString name="oneeighth">
          -12 26 272 73 callsubr
          134 30 -16 138 callsubr
          -18 30 hintmask 1101110010000000
          75 callgsubr
          hintmask 0010100000000000
          -24 -14 -24 -10 -38 -7 rrcurveto
          hintmask 1001110010000000
          14 callsubr
          -210 -528 rmoveto
          30 21 27 43 19 vhcurveto
          55 -17 57 -11 -49 vvcurveto
          -35 -44 -24 -44 -49 -39 27 33 vhcurveto
          hintmask 0100001100000000
          -75 callsubr
          hintmask 1000010010000000
          -65 callsubr
          hintmask 0100001100000000
          -71 callgsubr
          hintmask 1000010010000000
          -36 -17 -32 -26 -41 vvcurveto
          endchar
        </CharString>
        <CharString name="onehalf">
          0 26 260 73 callsubr
          318 30 hintmask 11011100
          75 callgsubr
          hintmask 11101100
          -24 -14 -24 -10 -38 -7 rrcurveto
          hintmask 11011100
          14 callsubr
          -229 -602 rmoveto
          -82 callsubr
          endchar
        </CharString>
        <CharString name="onequarter">
          0 107 -24 24 151 42 285 24 -24 55 hstemhm
          160 28 296 28 hintmask 01001110
          562 602 rmoveto
          -26 22 -172 -206 18 -16 rlineto
          -222 -62 112 callgsubr
          hintmask 01010110
          -24 -14 -24 -10 -38 -7 rrcurveto
          hintmask 01101110
          -24 82 vlineto
          -122 -527 rmoveto
          26 -22 172 206 -18 16 rlineto
          142 21 callsubr
          hintmask 10001110
          -83 28 vlineto
          hintmask 01001110
          83 49 24 -49 vlineto
          endchar
        </CharString>
        <CharString name="onethird">
          -12 26 126 24 122 73 callsubr
          314 30 -14 30 hintmask 11101101
          75 callgsubr
          hintmask 11110101
          -24 -14 -24 -10 -38 -7 rrcurveto
          hintmask 11101101
          14 callsubr
          -244 -550 rmoveto
          -59 callsubr
          hintmask 11101110
          38 14 20 24 40 vvcurveto
          52 -38 28 -58 -40 -40 -19 -29 -22 vhcurveto
          20 -18 rlineto
          26 20 35 14 25 hhcurveto
          48 20 -22 -34 -36 -29 -30 -69 hvcurveto
          -24 vlineto
          hintmask 11101101
          -26 callgsubr
        </CharString>
        <CharString name="ordfeminine">
          -55 callgsubr
        </CharString>
        <CharString name="ordfeminine.a">
          -48 callsubr
        </CharString>
        <CharString name="ordmasculine">
          -19 callsubr
        </CharString>
        <CharString name="oslash">
          -12 28 -20 20 446 28 -10 -20 hstemhm
          70 32 396 32 hintmask 10101100
          451 389 rmoveto
          29 -39 18 -52 -60 vvcurveto
          -132 -84 -90 -114 -51 -46 18 32 -34 vhcurveto
          -19 21 rmoveto
          -30 39 -18 51 61 vvcurveto
          132 84 92 114 52 45 -19 -33 34 vhcurveto
          hintmask 10011100
          99 70 rmoveto
          hintmask 01101100
          -22 18 -56 -64 rlineto
          36 -41 -53 20 -58 hhcurveto
          -125 -105 -92 -160 -73 22 -59 37 -42 hvcurveto
          -59 -68 rlineto
          hintmask 10011100
          22 -18 57 65 rlineto
          -36 41 53 -19 57 hhcurveto
          125 105 92 158 74 -22 59 -36 42 hvcurveto
          endchar
        </CharString>
        <CharString name="otilde">
          -40 callgsubr
          92 26 30 61 callgsubr
          hintmask 11011111
          -105 callgsubr
          80 344 rmoveto
          -44 callsubr
          hintmask 11111111
          -79 callgsubr
          hintmask 11011111
          -51 callgsubr
          endchar
        </CharString>
        <CharString name="p">
          -201 -21 210 -24 callsubr
          -12 -20 hstemhm
          110 30 358 32 hintmask 11101100
          140 58 rmoveto
          -44 51 66 -26 47 hhcurveto
          121 105 96 162 148 -67 96 -137 -64 -71 -36 -48 -49 hvcurveto
          -2 hlineto
          hintmask 11011100
          -4 72 rlineto
          -26 -700 30 180 hlineto
          134 vmoveto
          hintmask 11101100
          58 callgsubr
          -112 hvcurveto
          hintmask 11011100
          -39 -67 21 55 -60 hvcurveto
          endchar
        </CharString>
        <CharString name="p.sups">
          89 callgsubr
          217 291 rmoveto
          -25 36 34 -14 33 hhcurveto
          78 70 64 107 99 -45 63 -90 -42 -40 -22 -25 -33 hvcurveto
          -2 hlineto
          -3 39 rlineto
          -27 -460 32 116 hlineto
          87 vmoveto
          186 vlineto
          33 41 35 105 callsubr
          -35 11 29 -38 hvcurveto
          endchar
        </CharString>
        <CharString name="paragraph">
          660 -20 hstem
          92 276 56 28 vstem
          424 -80 rmoveto
          28 740 -28 hlineto
          -56 hmoveto
          -44 hlineto
          -138 -94 -58 -148 -148 100 -56 150 hvcurveto
          26 hlineto
          endchar
        </CharString>
        <CharString name="parenleft">
          -173 902 hstem
          230 34 vstem
          465 -173 rmoveto
          17 23 rlineto
          -147 110 -71 142 176 vvcurveto
          176 71 142 147 110 vhcurveto
          -17 23 rlineto
          -146 -102 -89 -152 -197 vvcurveto
          -197 89 -152 146 -102 vhcurveto
          endchar
        </CharString>
        <CharString name="parenleft.dnom">
          -66 51 callgsubr
          154 -54 callsubr
        </CharString>
        <CharString name="parenleft.numr">
          204 51 callgsubr
          424 -54 callsubr
        </CharString>
        <CharString name="parenleft.subs">
          -236 51 callgsubr
          -16 -54 callsubr
        </CharString>
        <CharString name="parenleft.sups">
          374 51 callgsubr
          594 -54 callsubr
        </CharString>
        <CharString name="parenright">
          -173 902 hstem
          336 34 vstem
          135 -173 rmoveto
          146 102 89 152 197 vvcurveto
          197 -89 152 -146 102 vhcurveto
          -17 -23 rlineto
          147 -110 71 -142 -176 vvcurveto
          -176 -71 -142 -147 -110 vhcurveto
          endchar
        </CharString>
        <CharString name="parenright.dnom">
          -66 50 callgsubr
          154 -53 callgsubr
        </CharString>
        <CharString name="parenright.numr">
          204 50 callgsubr
          424 -53 callgsubr
        </CharString>
        <CharString name="parenright.subs">
          -236 50 callgsubr
          -16 -53 callgsubr
        </CharString>
        <CharString name="parenright.sups">
          374 50 callgsubr
          594 -53 callgsubr
        </CharString>
        <CharString name="partialdiff">
          -12 28 352 28 248 28 hstem
          90 32 354 32 vstem
          262 16 rmoveto
          -76 -64 66 96 98 52 92 132 51 57 -23 -64 57 hvcurveto
          -150 -19 -72 -115 -118 hhcurveto
          -70 574 rmoveto
          34 32 44 20 44 hhcurveto
          92 72 -70 -212 -15 0 -15 -1 -14 hvcurveto
          48 -46 -61 30 -60 hhcurveto
          -142 -76 -92 -128 -118 82 -70 88 150 98 152 222 226 -86 84 -108 -56 -50 -24 -38 -34 hvcurveto
          endchar
        </CharString>
        <CharString name="percent">
          -12 138 callgsubr
          16 138 callgsubr
          hstemhm
          28 30 204 30 16 30 204 30 hintmask 10111011
          160 328 rmoveto
          hintmask 00111100
          78 54 59 105 104 -54 56 -78 -78 -54 -56 -104 hvcurveto
          hintmask 10111011
          -105 54 -59 78 vhcurveto
          hintmask 00111100
          26 vmoveto
          -58 -44 51 87 89 44 45 58 58 44 -45 -89 -87 -44 -51 -58 hvcurveto
          -96 -318 -89 callgsubr
          hintmask 11000011
          -122 -614 -73 callsubr
        </CharString>
        <CharString name="period">
          -12 82 callgsubr
          46 rmoveto
          91 callsubr
          -39 callsubr
          vhcurveto
          endchar
        </CharString>
        <CharString name="period.dnom">
          -8 69 callsubr
          26 -14 callgsubr
        </CharString>
        <CharString name="period.numr">
          262 69 callsubr
          296 -14 callgsubr
        </CharString>
        <CharString name="period.subs">
          -178 69 callsubr
          -144 -14 callgsubr
        </CharString>
        <CharString name="period.sups">
          432 69 callsubr
          466 -14 callgsubr
        </CharString>
        <CharString name="periodcentered">
          284 82 callgsubr
          342 rmoveto
          91 callsubr
          -39 callsubr
          vhcurveto
          endchar
        </CharString>
        <CharString name="perthousand">
          -12 26 210 26 140 26 210 26 hstem
          62 30 156 30 44 30 156 30 vstem
          170 390 -40 callsubr
          386 92 rmoveto
          -441 -205 9 -19 446 194 rlineto
          -400 -490 -40 callsubr
          260 -26 -40 callsubr
          endchar
        </CharString>
        <CharString name="peseta">
          21 -21 270 28 148 28 138 120 callgsubr
          298 rmoveto
          148 270 vlineto
          -101 -7 -67 -47 -118 hhcurveto
          314 vmoveto
          119 68 -35 -103 5 hvcurveto
          -270 138 hlineto
          368 -138 rmoveto
          -66 hlineto
          119 -6 -84 47 -122 hhcurveto
          -120 -166 hlineto
          -82 -4 rlineto
          -24 82 -446 30 270 90 vlineto
          121 84 57 119 7 hvcurveto
          66 hlineto
          endchar
        </CharString>
        <CharString name="pi">
          -12 28 432 30 hstem
          154 28 232 28 vstem
          414 72 rmoveto
          -60 23 -24 49 17 9 4 4 12 vhcurveto
          -6 26 rlineto
          -4 -16 -8 -2 -6 hhcurveto
          -32 -14 16 34 66 2 187 6 129 hvcurveto
          90 30 -414 hlineto
          -66 -4 rlineto
          -26 94 vlineto
          -148 -2 -150 -14 -150 vhcurveto
          30 -2 rlineto
          10 150 4 150 150 vvcurveto
          238 hlineto
          -2 -125 -4 -185 -66 vvcurveto
          endchar
        </CharString>
        <CharString name="plus">
          316 113 callsubr
          284 112 rmoveto
          32 204 186 28 -186 204 -32 -204 -186 -28 186 hlineto
          endchar
        </CharString>
        <CharString name="plusminus">
          0 28 284 113 callsubr
          284 102 rmoveto
          32 210 186 28 -186 208 -32 -208 -186 -28 186 hlineto
          -186 -312 rmoveto
          32 callsubr
          endchar
        </CharString>
        <CharString name="product">
          612 28 hstem
          74 32 386 34 vstem
          74 -120 rmoveto
          32 732 386 -732 34 760 -452 hlineto
          endchar
        </CharString>
        <CharString name="q">
          -201 -21 210 28 446 28 -12 -20 40 callsubr
          hintmask 11101100
          70 238 rmoveto
          -162 86 -88 126 70 62 40 48 48 vhcurveto
          -2 -98 rlineto
          -200 30 vlineto
          hintmask 11011100
          700 -26 vlineto
          hintmask 11101100
          -4 -56 rlineto
          -2 hlineto
          42 -49 -49 26 -62 hhcurveto
          -61 callsubr
          endchar
        </CharString>
        <CharString name="q.sups">
          10 callsubr
          144 418 rmoveto
          -107 55 -59 84 45 37 22 26 31 vhcurveto
          -2 -61 rlineto
          -122 32 460 -27 vlineto
          -3 -29 rlineto
          -2 hlineto
          23 -32 -28 14 -41 hhcurveto
          -80 -69 -64 -103 hvcurveto
          33 hmoveto
          79 51 60 67 -17 callgsubr
          endchar
        </CharString>
        <CharString name="question">
          -12 116 -95 -21 666 28 hstemhm
          234 104 94 32 hintmask 01111000
          262 214 -23 callgsubr
          -22 141 196 45 132 vvcurveto
          82 -62 68 -108 -76 -58 -32 -42 -42 vhcurveto
          22 -20 rlineto
          42 40 54 24 58 hhcurveto
          98 42 -58 -66 -124 -196 -42 26 -150 hvcurveto
          -28 -168 133 callgsubr
          hintmask 10111000
          38 -26 20 -26 vhcurveto
          hintmask 01111000
          -26 -26 -20 -38 hvcurveto
          endchar
        </CharString>
        <CharString name="questiondown">
          -204 28 550 116 0 -20 hstemhm
          138 32 94 104 hintmask 10111000
          340 264 rmoveto
          -28 hlineto
          22 -141 -196 -45 -132 vvcurveto
          -82 62 -68 108 76 58 32 42 42 vhcurveto
          -22 20 rlineto
          -42 -40 -54 -24 -58 hhcurveto
          -98 -42 58 66 124 196 42 -26 150 hvcurveto
          28 168 134 callgsubr
          hintmask 11011000
          91 callsubr
          vhcurveto
          hintmask 10111000
          26 26 20 38 hvcurveto
          endchar
        </CharString>
        <CharString name="quotedbl">
          392 296 hstemhm
          168.5 126 callsubr
          145.5 126 callsubr
          hintmask 10101000
          186 392 -23 callgsubr
          18 215 rlineto
          hintmask 11001000
          99 callgsubr
          218 -215 -23 callgsubr
          18 215 rlineto
          hintmask 10110000
          99 callgsubr
          endchar
        </CharString>
        <CharString name="quotedblbase">
          -34 105 callgsubr
          -222 -83 callgsubr
          218 -24 -83 callgsubr
          endchar
        </CharString>
        <CharString name="quotedblleft">
          398 114 hstem
          130 38 162 38 vstem
          248 700 -52 callgsubr
          182 24 -52 callgsubr
          endchar
        </CharString>
        <CharString name="quotedblright">
          586 105 callgsubr
          398 -83 callgsubr
          218 -24 -83 callgsubr
          endchar
        </CharString>
        <CharString name="quoteleft">
          398 114 hstem
          230 38 vstem
          348 700 -52 callgsubr
          endchar
        </CharString>
        <CharString name="quoteright">
          586 114 hstem
          328 38 vstem
          248 398 -83 callgsubr
          endchar
        </CharString>
        <CharString name="quotesinglbase">
          -34 114 hstem
          328 38 vstem
          248 -222 -83 callgsubr
          endchar
        </CharString>
        <CharString name="quotesingle">
          392 296 hstemhm
          268.5 126 callsubr
          hintmask 10100000
          286 392 -23 callgsubr
          18 215 rlineto
          hintmask 11000000
          99 callgsubr
          endchar
        </CharString>
        <CharString name="r">
          21 37 callsubr
          hintmask 11010000
          -84 callsubr
          hintmask 10110000
          52 callgsubr
          endchar
        </CharString>
        <CharString name="r.sups">
          555 30 hstem
          267 32 vstem
          267 260 rmoveto
          32 195 hlineto
          73 37 46 27 46 hhcurveto
          25 12 -3 -8 24 hvcurveto
          7 28 rlineto
          10 -20 -22 3 -22 hhcurveto
          -56 -47 -35 -51 -30 hvcurveto
          -2 hlineto
          -3 78 rlineto
          -27 hlineto
          endchar
        </CharString>
        <CharString name="racute">
          21 37 callsubr
          hintmask 11010000
          -84 callsubr
          hintmask 10110000
          52 callgsubr
          254 228 -64 callgsubr
        </CharString>
        <CharString name="radical">
          -108 48 hstem
          86 482 vstem
          186 376 rmoveto
          -100 -48 14 -26 68 32 150 -442 rlineto
          32 hlineto
          218 928 -19 callgsubr
          -194 -832 -4 -16 -2 -16 -4 -16 rlinecurve
          -4 hlineto
          -4 16 -4 16 -6 16 rrcurveto
          endchar
        </CharString>
        <CharString name="rcaron">
          21 83 callsubr
          114 32 hstemhm
          170 30 hintmask 11011000
          -84 callsubr
          hintmask 10111000
          52 callgsubr
          160 94 rmoveto
          -86 callgsubr
        </CharString>
        <CharString name="registered">
          326 26 144 26 78 26 60 26 hstem
          120 28 86 28 84 30 76 28 vstem
          300 326 rmoveto
          98 82 76 116 116 -82 78 -98 -98 -82 -78 -116 -116 82 -76 98 hvcurveto
          26 vmoveto
          -84 -68 70 96 96 68 72 84 84 68 -72 -96 -96 -68 -70 -84 hvcurveto
          -66 66 rmoveto
          28 78 50 hlineto
          40 -78 rlineto
          34 hlineto
          -50 88 rlineto
          22 6 18 24 26 vvcurveto
          50 -38 14 -38 vhcurveto
          -66 hlineto
          28 -104 rmoveto
          78 34 vlineto
          38 12 -16 -24 -28 -22 -10 -32 hvcurveto
          endchar
        </CharString>
        <CharString name="ring">
          538 22 124 22 hstem
          222 24 108 24 vstem
          300 538 -73 callgsubr
        </CharString>
        <CharString name="s">
          -40 callgsubr
          hstem
          114 32 336 -98 callgsubr
          endchar
        </CharString>
        <CharString name="s.sups">
          252 27 280 26 hstem
          192 31 190 31 vstem
          175 296 rmoveto
          -24 34 48 -20 58 hhcurveto
          83 46 42 48 62 -68 16 -61 19 hvcurveto
          -46 14 -46 15 34 vvcurveto
          29 28 28 63 39 28 -12 -17 26 vhcurveto
          17 22 rlineto
          19 -29 -40 14 -40 hhcurveto
          -80 -43 -39 -46 -54 66 -19 59 -18 hvcurveto
          45 -13 51 -17 -39 vvcurveto
          -33 -33 -28 -63 -57 -36 15 25 -32 vhcurveto
          endchar
        </CharString>
        <CharString name="sacute">
          -40 callgsubr
          hstem
          114 32 336 -98 callgsubr
          270 618 -64 callgsubr
        </CharString>
        <CharString name="scaron">
          -40 callgsubr
          82 32 hstem
          114 32 336 -98 callgsubr
          176 484 rmoveto
          -86 callgsubr
        </CharString>
        <CharString name="scircumflex">
          -40 callgsubr
          184 32 hstem
          114 32 336 -98 callgsubr
          82 484 -23 callgsubr
          19 callsubr
        </CharString>
        <CharString name="section">
          -48 28 672 28 hstem
          106 30 36 30 200 30 32 30 vstem
          372 176 rmoveto
          -87 57 -149 13 112 vvcurveto
          55 39 28 55 28 vhcurveto
          85 -58 149 -13 -116 vvcurveto
          -58 -34 -24 -58 -24 vhcurveto
          74 452 rmoveto
          30 -39 -49 22 -56 hhcurveto
          -90 -40 -60 -52 -35 13 -25 21 -20 hvcurveto
          -55 -28 -45 -37 -67 -182 296 40 -144 vvcurveto
          -48 -42 -42 -64 -69 -38 22 32 -37 vhcurveto
          -22 -22 rlineto
          -34 40 54 -26 72 hhcurveto
          70 66 50 70 36 -14 27 -21 20 hvcurveto
          56 28 41 32 69 186 -292 -39 139 vvcurveto
          40 28 42 72 56 35 -20 -26 35 vhcurveto
          endchar
        </CharString>
        <CharString name="semicolon">
          -1 107 268 116 hstemhm
          248 104 -21 38 hintmask 11100000
          300 374 rmoveto
          -39 callsubr
          91 callsubr
          hvcurveto
          -79 -584 rmoveto
          hintmask 11010000
          15 callgsubr
        </CharString>
        <CharString name="seven">
          21 -21 612 28 hstem
          252 36 vstem
          252 hmoveto
          36 hlineto
          8 252 54 28 callsubr
        </CharString>
        <CharString name="seven.dnom">
          274 71 callgsubr
          hmoveto
          -39 callgsubr
        </CharString>
        <CharString name="seven.numr">
          614 71 callgsubr
          340 rmoveto
          -39 callgsubr
        </CharString>
        <CharString name="seven.onum">
          542 28 hstem
          252 36 vstem
          252 -70 rmoveto
          36 hlineto
          10 252 52 28 callsubr
        </CharString>
        <CharString name="seven.subs">
          104 71 callgsubr
          -170 rmoveto
          -39 callgsubr
        </CharString>
        <CharString name="seven.sups">
          714 71 callgsubr
          440 rmoveto
          -39 callgsubr
        </CharString>
        <CharString name="seveneighths">
          -12 138 callgsubr
          302 26 hstemhm
          128 28 166 30 -16 138 callsubr
          -18 30 hintmask 11111001
          128 340 rmoveto
          -1 callgsubr
          -64 -304 -89 callgsubr
          -210 -528 rmoveto
          30 21 27 43 19 vhcurveto
          55 -17 57 -11 -49 vvcurveto
          -35 -44 -24 -44 -49 -39 27 33 vhcurveto
          hintmask 01000110
          -75 callsubr
          hintmask 10001001
          -65 callsubr
          hintmask 01000110
          -71 callgsubr
          hintmask 10001001
          -36 -17 -32 -26 -41 vvcurveto
          endchar
        </CharString>
        <CharString name="six">
          -12 28 340 28 240 28 hstem
          90 32 370 32 vstem
          326 -48 callgsubr
        </CharString>
        <CharString name="six.dnom">
          -12 26 142 26 104 26 hstem
          188 28 176 30 vstem
          316 14 -81 callsubr
        </CharString>
        <CharString name="six.numr">
          328 24 callsubr
          354 -81 callsubr
        </CharString>
        <CharString name="six.onum">
          -12 28 340 28 240 28 hstem
          92 32 370 32 vstem
          328 -48 callgsubr
        </CharString>
        <CharString name="six.subs">
          -182 24 callsubr
          -156 -81 callsubr
        </CharString>
        <CharString name="six.sups">
          428 24 callsubr
          454 -81 callsubr
        </CharString>
        <CharString name="slash">
          131 callgsubr
          480 710 rmoveto
          -34 hlineto
          -326 -870 rlineto
          34 hlineto
          endchar
        </CharString>
        <CharString name="slash.frac">
          36 588 hstem
          38 524 vstem
          64 36 -89 callgsubr
          endchar
        </CharString>
        <CharString name="space">
          endchar
        </CharString>
        <CharString name="space.frac">
          endchar
        </CharString>
        <CharString name="sterling">
          0 28 268 28 300 28 hstemhm
          87 66 -1 29 35 28 hintmask 11110100
          107 callsubr
          28 -4 26 -7 24 vhcurveto
          197 28 hlineto
          hintmask 11101100
          -205 hlineto
          -19 56 -25 51 57 33 callgsubr
          -56 24 -52 18 -54 hvcurveto
          -112 -2 rlineto
          -26 121 vlineto
          8 -25 5 -26 -27 vvcurveto
          hintmask 11110100
          98 callsubr
        </CharString>
        <CharString name="summation">
          -120 28 704 28 hstemhm
          78 42 -30 42 hintmask 11100000
          78 -94 rmoveto
          -26 464 28 -422 4 vlineto
          260 350 rlineto
          hintmask 11010000
          -248 346 rlineto
          4 378 28 -420 -26 vlineto
          252 -354 rlineto
          endchar
        </CharString>
        <CharString name="t">
          -12 28 434 28 hstem
          232 30 vstem
          -90 callsubr
          endchar
        </CharString>
        <CharString name="t.sups">
          252 27 271 27 hstem
          258 32 vstem
          258 379 rmoveto
          -76 27 -51 88 28 33 8 12 25 vhcurveto
          -8 24 rlineto
          -10 -22 -22 -7 -29 hhcurveto
          -70 -18 37 61 hvcurveto
          173 157 27 -157 92 -27 vlineto
          -4 -92 -84 -2 rlineto
          -25 83 vlineto
          endchar
        </CharString>
        <CharString name="tcaron">
          -12 28 434 28 70 204 hstem
          232 30 137 29 vstem
          -90 callsubr
          190 98 -3 callsubr
        </CharString>
        <CharString name="thorn">
          -201 -21 210 -24 callsubr
          232 -20 hstem
          110 30 358 32 vstem
          140 -42 rmoveto
          100 vlineto
          -44 52 63 -26 49 hhcurveto
          119 107 96 162 148 -69 96 -137 -64 -68 -36 -52 -54 hvcurveto
          2 96 rlineto
          224 -30 -944 30 vlineto
          314 vmoveto
          276 vlineto
          64 64 65 30 53 hhcurveto
          125 51 -94 -122 -134 -82 -96 -110 -41 -65 21 55 -60 hvcurveto
          endchar
        </CharString>
        <CharString name="three">
          -12 53 callgsubr
          78 -46 callsubr
        </CharString>
        <CharString name="three.dnom">
          -12 -3 callgsubr
          52 -84 callgsubr
        </CharString>
        <CharString name="three.numr">
          328 -3 callgsubr
          392 -84 callgsubr
        </CharString>
        <CharString name="three.onum">
          -82 53 callgsubr
          8 -46 callsubr
        </CharString>
        <CharString name="three.subs">
          -182 -3 callgsubr
          -118 -84 callgsubr
        </CharString>
        <CharString name="three.sups">
          428 -3 callgsubr
          492 -84 callgsubr
        </CharString>
        <CharString name="threeeighths">
          -12 138 callgsubr
          16 31 callsubr
          hstemhm
          222 30 -14 30 54 30 -16 138 callsubr
          -18 30 hintmask 0010001000000000
          38 392 rmoveto
          -59 callsubr
          hintmask 0001110000000000
          38 14 20 24 40 vvcurveto
          52 -38 28 -58 -40 -40 -19 -29 -22 vhcurveto
          20 -18 rlineto
          26 20 35 14 25 hhcurveto
          48 20 -22 -34 -36 -29 -30 -69 hvcurveto
          -24 vlineto
          hintmask 1011001100100000
          -50 callsubr
          2 -374 -89 callgsubr
          -210 -528 rmoveto
          30 21 27 43 19 vhcurveto
          55 -17 57 -11 -49 vvcurveto
          -35 -44 -24 -44 -49 -39 27 33 vhcurveto
          hintmask 0100000011000000
          -75 callsubr
          hintmask 1000000100100000
          -65 callsubr
          hintmask 0100000011000000
          -71 callgsubr
          hintmask 1000000100100000
          -36 -17 -32 -26 -41 vvcurveto
          endchar
        </CharString>
        <CharString name="threequarters">
          0 107 -24 24 151 42 28 31 callsubr
          hstemhm
          222 30 -14 30 216 28 hintmask 0101110110000000
          602 602 rmoveto
          -26 22 -172 -206 18 -16 rlineto
          -348 184 rmoveto
          hintmask 0101111010000000
          26 20 35 14 25 hhcurveto
          48 20 -22 -34 -36 -29 -30 -69 hvcurveto
          -24 vlineto
          hintmask 0101110110000000
          -50 callsubr
          -24 -18 rlineto
          -59 callsubr
          hintmask 0111111010000000
          38 14 20 24 40 vvcurveto
          52 -38 28 -58 -40 -40 -19 -29 -22 vhcurveto
          24 -546 rmoveto
          26 -22 172 206 -18 16 rlineto
          102 21 callsubr
          hintmask 1001110110000000
          -83 28 vlineto
          hintmask 0101110110000000
          83 49 24 -49 vlineto
          endchar
        </CharString>
        <CharString name="tilde">
          582 137 callgsubr
          182 -4 callsubr
          hintmask 01110000
          182 582 rmoveto
          -44 callsubr
          hintmask 11110000
          -79 callgsubr
          hintmask 01110000
          -51 callgsubr
          endchar
        </CharString>
        <CharString name="trademark">
          418 40 190 28 hstem
          112 30 164 30 202 30 vstem
          306 370 rmoveto
          30 170 hlineto
          0 callgsubr
          -194 -306 rmoveto
          30 278 110 28 -250 -28 110 hlineto
          endchar
        </CharString>
        <CharString name="triagdn">
          40 470 hstem
          49 502 vstem
          299 40 rmoveto
          4 hlineto
          248 468 rlineto
          2 -502 -2 vlineto
          endchar
        </CharString>
        <CharString name="triagup">
          52 472 hstem
          49 502 vstem
          49 52 59 callgsubr
        </CharString>
        <CharString name="two">
          0 28 596 118 callsubr
          -258 hlineto
          -41 -39 -2 -2 -41 hvcurveto
          214 199 129 123 130 vvcurveto
          106 -71 70 -124 -84 -62 -42 -52 88 callgsubr
          -66 -82 -118 -115 -116 -244 -222 hvcurveto
          endchar
        </CharString>
        <CharString name="two.dnom">
          0 31 callgsubr
          hmoveto
          -82 callsubr
          endchar
        </CharString>
        <CharString name="two.numr">
          340 31 callgsubr
          340 rmoveto
          -82 callsubr
          endchar
        </CharString>
        <CharString name="two.onum">
          0 28 526 118 callsubr
          -250 hlineto
          -41 -39 -2 -2 -41 hvcurveto
          214 152 121 116 106 vvcurveto
          112 -71 72 -124 -84 -62 -43 -51 88 callgsubr
          -68 -88 -94 -114 -116 -245 -168 hvcurveto
          endchar
        </CharString>
        <CharString name="two.subs">
          -170 31 callgsubr
          -170 rmoveto
          -82 callsubr
          endchar
        </CharString>
        <CharString name="two.sups">
          440 31 callgsubr
          440 rmoveto
          -82 callsubr
          endchar
        </CharString>
        <CharString name="twothirds">
          -12 31 callsubr
          28 26 260 26 hstemhm
          226 30 246 30 -14 30 hintmask 11011101
          53 340 rmoveto
          -82 callsubr
          11 -324 -89 callgsubr
          -244 -550 rmoveto
          -59 callsubr
          hintmask 11111110
          38 14 20 24 40 vvcurveto
          52 -38 28 -58 -40 -40 -19 -29 -22 vhcurveto
          20 -18 rlineto
          26 20 35 14 25 hhcurveto
          48 20 -22 -34 -36 -29 -30 -69 hvcurveto
          -24 vlineto
          hintmask 11011101
          -26 callgsubr
        </CharString>
        <CharString name="u">
          -32 callsubr
          23 callgsubr
          hintmask 10111000
          490 34 callgsubr
          -104 callsubr
          hintmask 01111000
          -7 callgsubr
          endchar
        </CharString>
        <CharString name="u.sups">
          252 29 hstem
          170 32 199 31 vstem
          432 577 rmoveto
          -31 -232 hlineto
          -44 -41 -32 -20 -43 hhcurveto
          -59 -24 31 66 hvcurveto
          199 -32 -203 vlineto
          -82 36 -40 73 50 38 27 36 33 vhcurveto
          2 hlineto
          4 -55 117 callgsubr
        </CharString>
        <CharString name="uacute">
          -32 callsubr
          23 callgsubr
          hintmask 10111000
          490 34 callgsubr
          -104 callsubr
          hintmask 01111000
          -7 callgsubr
          -116 123 callgsubr
          endchar
        </CharString>
        <CharString name="ubreve">
          -32 callsubr
          118 26 hstemhm
          90 30 58 72 callsubr
          50 30 hintmask 10111001
          490 34 callgsubr
          -104 callsubr
          hintmask 01111111
          -7 callgsubr
          -196 576 -97 callgsubr
        </CharString>
        <CharString name="ucircumflex">
          -32 callsubr
          216 32 23 callgsubr
          hintmask 10111100
          490 34 callgsubr
          -104 callsubr
          hintmask 01111100
          -7 callgsubr
          -304 572 -23 callgsubr
          19 callsubr
        </CharString>
        <CharString name="udieresis">
          -32 callsubr
          144 72 hstemhm
          90 30 54 68 104 68 46 30 hintmask 10111001
          490 34 callgsubr
          -104 callsubr
          hintmask 01111111
          -7 callgsubr
          -282 602 -94 callsubr
        </CharString>
        <CharString name="ugrave">
          -32 callsubr
          23 callgsubr
          hintmask 10111000
          490 34 callgsubr
          -104 callsubr
          hintmask 01111000
          -7 callgsubr
          -172 572 -47 callgsubr
        </CharString>
        <CharString name="uhorn">
          62 callgsubr
          23 callgsubr
          58 30 hintmask 10111100
          534 586 rmoveto
          10 -14 4 -12 -12 vvcurveto
          -40 -32 -22 -54 -8 vhcurveto
          -2 -104 callsubr
          hintmask 01111100
          -53 callsubr
        </CharString>
        <CharString name="uhungarumlaut">
          -32 callsubr
          112 136 23 callgsubr
          hintmask 10111100
          490 34 callgsubr
          -104 callsubr
          hintmask 01111100
          -7 callgsubr
          -272 570 -27 callgsubr
        </CharString>
        <CharString name="umacron">
          -32 callsubr
          150 28 23 callgsubr
          hintmask 10111100
          490 34 callgsubr
          -104 callsubr
          hintmask 01111100
          -7 callgsubr
          -306 608 -59 callgsubr
          endchar
        </CharString>
        <CharString name="underscore">
          -120 38 hstem
          60 480 vstem
          60 -82 rmoveto
          -38 480 38 vlineto
          endchar
        </CharString>
        <CharString name="uni00470303">
          26 callsubr
          46 114 callsubr
          61 34 113 22 204 22 33 33 hintmask 1110111110000000
          -100 callgsubr
          hintmask 1111111110000000
          329 386 rmoveto
          hintmask 1110111110000000
          44 20 48 38 2 hvcurveto
          -22 hlineto
          hintmask 1111111110000000
          -72 callgsubr
          hintmask 1110111110000000
          34 4 16 24 22 hhcurveto
          hintmask 1111111110000000
          42 24 -58 52 hhcurveto
          endchar
        </CharString>
        <CharString name="uni00670303">
          -49 callgsubr
          92 137 callgsubr
          88 32 2 32 38 -4 callsubr
          10 32 58 32 hintmask 1111001101011000
          -96 callsubr
          hintmask 1111001011011000
          -82 callgsubr
          hintmask 1110101011011000
          -83 callsubr
          hintmask 1111001101011000
          38 callsubr
          hintmask 1110101011011000
          -71 callsubr
          -104 402 rmoveto
          -44 callsubr
          hintmask 1111011011111000
          -79 callgsubr
          hintmask 1111001011011000
          -35 -27 56 -48 hhcurveto
          hintmask 1110101011011000
          110 callsubr
        </CharString>
        <CharString name="uni00670303.a">
          -41 callgsubr
          124 26 30 136 callsubr
          86 -4 callsubr
          36 30 hintmask 1110011111000000
          -74 callgsubr
          hintmask 1101011111000000
          526 -26 vlineto
          hintmask 1110011111000000
          -102 callgsubr
          -96 556 rmoveto
          -44 callsubr
          hintmask 1110111111000000
          -79 callgsubr
          hintmask 1110011111000000
          -51 callgsubr
          endchar
        </CharString>
        <CharString name="uni00A0">
          endchar
        </CharString>
        <CharString name="uni00AD">
          9 callsubr
        </CharString>
        <CharString name="uni00AD.a">
          45 callsubr
        </CharString>
        <CharString name="uni00B5">
          -12 28 hstem
          90 26 344 28 vstem
          90 -180 rmoveto
          30 hlineto
          -4 86 0 39 119 vvcurveto
          -62 34 52 -14 64 hhcurveto
          72 67 38 86 53 hvcurveto
          2 hlineto
          -89 8 -35 40 11 7 2 2 8 vhcurveto
          -6 26 rlineto
          -2 -10 -4 0 -4 hhcurveto
          -12 -10 10 20 144 1 144 1 144 hvcurveto
          -30 -324 hlineto
          -123 -73 -64 -15 -61 hhcurveto
          -101 -41 64 104 hvcurveto
          294 -30 vlineto
          endchar
        </CharString>
        <CharString name="uni0122">
          64 callsubr
          44 callsubr
          hstem
          61 34 265 30 99 33 vstem
          -100 callgsubr
          251 -384 rmoveto
          -10 -26 rlineto
          28 -6 -96 callgsubr
          20 -50 12 vhcurveto
          endchar
        </CharString>
        <CharString name="uni0123">
          -49 callgsubr
          176 26 hstemhm
          88 32 2 32 100 30 154 32 58 32 hintmask 1111001011100000
          -96 callsubr
          hintmask 1111000111100000
          -82 callgsubr
          hintmask 1110100111100000
          -83 callsubr
          hintmask 1111001011100000
          38 callsubr
          hintmask 1110110111100000
          -71 callsubr
          36 358 rmoveto
          10 26 rlineto
          6 callsubr
          111 callsubr
        </CharString>
        <CharString name="uni0123.a">
          -41 callgsubr
          208 136 callsubr
          148 30 180 30 hintmask 11100111
          -74 callgsubr
          hintmask 11010111
          526 -26 vlineto
          hintmask 11100111
          -102 callgsubr
          44 512 rmoveto
          10 26 rlineto
          hintmask 11101111
          6 callsubr
          hintmask 11100111
          111 callsubr
        </CharString>
        <CharString name="uni012C">
          63 callgsubr
          52 26 hstem
          188 26 70 32 vstem
          -85 callgsubr
          188 684 rmoveto
          -69 callsubr
        </CharString>
        <CharString name="uni012D">
          52 callsubr
          98 26 hstem
          234 26 86 30 64 26 vstem
          -67 callgsubr
          250 98 -97 callgsubr
        </CharString>
        <CharString name="uni0136">
          114 callgsubr
          660 -20 hstem
          122 32 219 30 4 callsubr
          203 -712 rmoveto
          -10 -26 rlineto
          28 -6 -96 callgsubr
          20 -50 12 vhcurveto
          endchar
        </CharString>
        <CharString name="uni0137">
          114 callgsubr
          478 -20 264 -20 hstem
          130 30 208 3 callsubr
          190 -774 rmoveto
          -10 -26 rlineto
          28 -6 -96 callgsubr
          20 -50 12 vhcurveto
          endchar
        </CharString>
        <CharString name="uni013B">
          -206 26 180 68 callgsubr
          196 30 -43 callsubr
          178 -712 rmoveto
          -10 -26 rlineto
          28 -6 -96 callgsubr
          20 -50 12 vhcurveto
          endchar
        </CharString>
        <CharString name="uni013C">
          64 callsubr
          28 678 28 hstem
          280 30 92 30 vstem
          97 -87 callgsubr
          257 -774 rmoveto
          -10 -26 rlineto
          28 -6 -96 callgsubr
          20 -50 12 vhcurveto
          endchar
        </CharString>
        <CharString name="uni0145">
          -206 26 180 137 callsubr
          hstem
          96 30 198 30 120 30 vstem
          -92 callsubr
          180 -712 rmoveto
          -10 -26 rlineto
          28 -6 -96 callgsubr
          20 -50 12 vhcurveto
          endchar
        </CharString>
        <CharString name="uni0146">
          -206 26 201 17 callsubr
          30 202 30 108 30 hintmask 01101110
          -95 callgsubr
          -62 -57 vhcurveto
          -4 hlineto
          hintmask 11011110
          75 callsubr
          184 -530 rmoveto
          -10 -26 rlineto
          28 -6 -96 callgsubr
          20 -50 12 vhcurveto
          endchar
        </CharString>
        <CharString name="uni014E">
          -29 callsubr
          40 26 hstem
          56 34 98 26 296 34 vstem
          -106 callgsubr
          694 vmoveto
          -69 callsubr
        </CharString>
        <CharString name="uni014F">
          -40 callgsubr
          86 26 hstem
          70 32 82 72 callsubr
          82 32 vstem
          -105 callgsubr
          198 338 -97 callgsubr
        </CharString>
        <CharString name="uni0156">
          -206 26 201 30 callgsubr
          188 30 110 34 vstem
          286 -78 rmoveto
          28 -6 -96 callgsubr
          20 -50 12 vhcurveto
          -140 392 -52 callsubr
          46 -26 rmoveto
          -77 callsubr
          38 hlineto
          endchar
        </CharString>
        <CharString name="uni0157">
          -206 26 201 37 callsubr
          22 30 hintmask 01101000
          -84 callsubr
          hintmask 01011000
          52 callgsubr
          hintmask 11101100
          4 -530 rmoveto
          -10 -26 rlineto
          28 -6 -96 callgsubr
          20 -50 12 vhcurveto
          endchar
        </CharString>
        <CharString name="uni015E">
          64 callsubr
          100 callgsubr
          188 30 128 32 vstem
          274 382 rmoveto
          -51 21 -75 31 82 vvcurveto
          76 66 50 98 72 58 -28 -42 40 vhcurveto
          20 22 rlineto
          41 -40 -66 37 -84 hhcurveto
          -112 -84 -64 -94 -98 84 -39 60 -25 hvcurveto
          102 -46 rlineto
          71 -30 61 -28 -88 vvcurveto
          -84 -72 -58 -112 -84 -74 36 56 -50 vhcurveto
          -22 -22 50 -56 73 -41 98 -3 rlinecurve
          -33 -62 rlineto
          38 -10 -96 callgsubr
          18 -32 10 vhcurveto
          23 45 rlineto
          119 6 78 72 95 vvcurveto
          102 -72 39 -78 33 vhcurveto
          endchar
        </CharString>
        <CharString name="uni015F">
          64 callsubr
          -24 callsubr
          hstem
          114 32 194 30 112 32 vstem
          476 432 rmoveto
          34 -45 -74 24 -61 hhcurveto
          -127 -55 -58 -66 -62 79 -44 111 -26 hvcurveto
          150 -35 28 -35 -46 vvcurveto
          -54 -54 -48 -104 -104 -62 28 44 -52 vhcurveto
          -19 -24 53 -39 73 -33 92 -4 rlinecurve
          -33 -62 rlineto
          38 -10 -96 callgsubr
          18 -32 10 vhcurveto
          23 44 rlineto
          115 4 66 60 68 vvcurveto
          66 -44 38 -158 39 vhcurveto
          -102 25 -64 32 48 vvcurveto
          48 35 46 113 67 55 -22 -32 42 vhcurveto
          endchar
        </CharString>
        <CharString name="uni0162">
          114 callgsubr
          632 28 hstemhm
          284 32 0 30 hintmask 01110000
          316 hmoveto
          632 234 28 -500 -28 234 -632 3 vlineto
          hintmask 11101000
          -39 -74 rlineto
          38 -10 -96 callgsubr
          18 -32 10 vhcurveto
          hintmask 01110000
          29 56 rlineto
          endchar
        </CharString>
        <CharString name="uni0163">
          64 callsubr
          28 -26 26 434 28 hstemhm
          232 30 140 30 hintmask 01011100
          395 -12 rmoveto
          1 0 0 1 hhcurveto
          44 58 12 18 43 hvcurveto
          -10 24 rlineto
          -16 -39 -41 -10 -53 hhcurveto
          -111 -26 60 96 hvcurveto
          278 262 28 -262 140 -26 vlineto
          -4 -140 -148 -4 rlineto
          -24 148 -274 vlineto
          hintmask 10111100
          -103 32 -72 103 -11 vhcurveto
          -33 -64 rlineto
          38 -10 30 -12 -32 vvcurveto
          -28 -38 -16 -56 -8 vhcurveto
          6 -26 rlineto
          60 8 58 24 50 vvcurveto
          hintmask 01011100
          40 -28 18 -32 10 vhcurveto
          endchar
        </CharString>
        <CharString name="uni0180">
          -12 28 5 -21 442 28 114 28 -28 138 hstemhm
          110 30 358 32 hintmask 10110110
          140 348 rmoveto
          64 64 67 30 53 hhcurveto
          125 49 -90 -116 -128 -80 -92 -110 -41 -67 21 55 -60 hvcurveto
          396 vmoveto
          96 236 28 -236 vlineto
          hintmask 10101110
          110 -30 vlineto
          hintmask 01110110
          -110 vlineto
          -78 -4 rlineto
          -24 78 -584 26 vlineto
          hintmask 10110110
          88 callsubr
          92 156 142 -67 92 -137 -64 -71 -36 -52 -53 hvcurveto
          endchar
        </CharString>
        <CharString name="uni018F">
          -12 28 284 28 316 28 hstem
          66 32 412 32 vstem
          98 300 rmoveto
          411 hlineto
          -170 -9 -80 -114 -122 hhcurveto
          -116 -74 110 172 -10 hvcurveto
          56 278 rmoveto
          42 38 52 26 60 hhcurveto
          134 72 -124 -188 hvcurveto
          -1 0 -2 -1 vvcurveto
          -444 hlineto
          0 0 0 -2 vvcurveto
          -194 86 -144 146 146 98 136 208 208 -86 132 -154 -72 -56 -32 -42 -38 vhcurveto
          endchar
        </CharString>
        <CharString name="uni0192">
          -98 -24 callsubr
          240 28 -22 -20 hstemhm
          286.5 30 hintmask 11011000
          524 650 rmoveto
          hintmask 11101000
          12 -21 -26 10 -39 hhcurveto
          -92 -43 -80 -122 -13 hvcurveto
          -7 -66 rlineto
          -55 hlineto
          -66 -4 rlineto
          -24 118 vlineto
          -30 -278 rlineto
          -92 -11 -30 -76 -81 hhcurveto
          -24 -21 8 8 -19 hvcurveto
          -12 -24 rlineto
          -10 21 23 -10 28 hhcurveto
          98 43 74 124 15 hvcurveto
          30 276 rlineto
          166 28 -163 hlineto
          7 68 rlineto
          86 7 30 86 79 hhcurveto
          32 22 -6 -12 20 hvcurveto
          endchar
        </CharString>
        <CharString name="uni01CD">
          -61 callgsubr
          50 30 hstem
          50 500 vstem
          314 710 rmoveto
          96 104 -19 callgsubr
          -78 -74 rlineto
          -4 hlineto
          -78 74 -19 callgsubr
          96 -104 rlineto
          -111 -446 -106 callsubr
        </CharString>
        <CharString name="uni01CE">
          -76 callsubr
          82 32 39 callsubr
          hintmask 10101100
          -91 callgsubr
          hintmask 01101100
          -103 callsubr
          hintmask 10101100
          -103 callgsubr
          hintmask 10111100
          176 454 rmoveto
          -86 callgsubr
        </CharString>
        <CharString name="uni01CE.a">
          -58 callgsubr
          114 32 40 callsubr
          hintmask 10100110
          -107 callsubr
          hintmask 01010110
          -67 callsubr
          hintmask 10100110
          -97 callsubr
          hintmask 10101110
          218 334 rmoveto
          -86 callgsubr
        </CharString>
        <CharString name="uni01CF">
          63 callgsubr
          50 30 77 callgsubr
          -85 callgsubr
          268 786 -79 callsubr
        </CharString>
        <CharString name="uni01D0">
          52 callsubr
          94 32 hstem
          346 30 vstem
          -67 callgsubr
          236 94 rmoveto
          -86 callgsubr
        </CharString>
        <CharString name="uni01D1">
          -29 callsubr
          38 30 hstem
          56 34 420 34 vstem
          -106 callgsubr
          80 796 -79 callsubr
        </CharString>
        <CharString name="uni01D2">
          -40 callgsubr
          82 32 hstem
          70 32 396 32 vstem
          -105 callgsubr
          184 334 rmoveto
          -86 callgsubr
        </CharString>
        <CharString name="uni01D3">
          -24 callgsubr
          70 30 hstem
          92 32 354 30 vstem
          -101 callsubr
          288 154 -79 callsubr
        </CharString>
        <CharString name="uni01D4">
          -32 callsubr
          114 32 23 callgsubr
          hintmask 10111100
          490 34 callgsubr
          -104 callsubr
          hintmask 01111100
          -7 callgsubr
          -210 572 rmoveto
          -86 callgsubr
        </CharString>
        <CharString name="uni01D5">
          -24 callgsubr
          88 64 60 28 -68 callsubr
          98 192 -59 callgsubr
          34 -152 rmoveto
          -99 callsubr
          152 55 callgsubr
        </CharString>
        <CharString name="uni01D6">
          -32 callsubr
          144 64 80 28 hstemhm
          90 30 66 64 88 64 58 30 hintmask 1011110010000000
          490 34 callgsubr
          -104 callsubr
          hintmask 0111111110000000
          -7 callgsubr
          -272 602 rmoveto
          -88 callgsubr
          152 hmoveto
          -88 callgsubr
          -188 144 rmoveto
          222 28 -222 hlineto
          endchar
        </CharString>
        <CharString name="uni01D7">
          -24 callgsubr
          88 64 -68 callsubr
          176 166 -23 callgsubr
          108 104 rlineto
          -40 hlineto
          -140 -202 rmoveto
          -99 callsubr
          152 55 callgsubr
        </CharString>
        <CharString name="uni01D8">
          -32 callsubr
          144 64 hstemhm
          90 30 66 64 88 64 58 30 hintmask 10111001
          490 34 callgsubr
          -104 callsubr
          hintmask 01111111
          -7 callgsubr
          -236 706 -23 callgsubr
          94 96 rlineto
          -42 hlineto
          -116 -200 rmoveto
          -88 callgsubr
          152 57 callgsubr
        </CharString>
        <CharString name="uni01D9">
          -24 callgsubr
          88 64 34 30 -68 callsubr
          132 68 rmoveto
          -99 callsubr
          152 hmoveto
          -99 callsubr
          4 202 -79 callsubr
        </CharString>
        <CharString name="uni01DA">
          -32 callsubr
          144 64 40 28 hstemhm
          90 30 66 64 88 64 58 30 hintmask 1011110010000000
          490 34 callgsubr
          -104 callsubr
          hintmask 0111111110000000
          -7 callgsubr
          -210 706 -23 callgsubr
          94 96 -19 callgsubr
          -76 -68 rlineto
          -4 hlineto
          -76 68 -19 callgsubr
          32 -200 rmoveto
          -88 callgsubr
          152 57 callgsubr
        </CharString>
        <CharString name="uni01DB">
          -24 callgsubr
          88 64 -68 callsubr
          144 270 -9 callsubr
        </CharString>
        <CharString name="uni01DC">
          -32 callsubr
          144 64 hstemhm
          90 30 66 64 88 64 58 30 hintmask 10111001
          490 34 callgsubr
          -104 callsubr
          hintmask 01111111
          -7 callgsubr
          -236 -11 callsubr
        </CharString>
        <CharString name="uni01EA">
          103 callgsubr
          57 callsubr
          hstem
          56 34 163 30 227 34 vstem
          379 -160 122 callsubr
          40 29 54 56 24 hvcurveto
          108 46 68 112 176 vvcurveto
          208 -102 132 -142 -142 -102 -132 -208 -174 78 -174 179 4 vhcurveto
          -39 -32 -21 -40 -38 121 callsubr
          -93 198 rmoveto
          -125 -85 124 190 190 85 120 -6 callsubr
          85 -120 -190 -190 -85 -124 -125 hvcurveto
          endchar
        </CharString>
        <CharString name="uni01EB">
          103 callgsubr
          -24 callsubr
          hstem
          70 32 148 30 218 32 vstem
          250 -122 rmoveto
          -54 34 -80 callgsubr
          -24 18 36 44 32 48 44 20 hvcurveto
          106 42 68 66 138 vvcurveto
          160 -105 92 -125 -125 -105 -92 -160 -158 104 -94 132 2 vhcurveto
          -22 -18 -34 -42 -50 vvcurveto
          -148 360 rmoveto
          132 84 92 114 114 84 -92 -132 -132 -84 -90 -114 -114 -84 90 132 vhcurveto
          endchar
        </CharString>
        <CharString name="uni0218">
          64 callsubr
          100 callgsubr
          186 30 130 -100 callsubr
          184 -162 rmoveto
          -10 -26 rlineto
          28 -6 -96 callgsubr
          20 -50 12 vhcurveto
          endchar
        </CharString>
        <CharString name="uni0219">
          64 callsubr
          -24 callsubr
          hstem
          114 32 190 30 116 -98 callgsubr
          182 -140 rmoveto
          -10 -26 rlineto
          28 -6 -96 callgsubr
          20 -50 12 vhcurveto
          endchar
        </CharString>
        <CharString name="uni021A">
          114 callgsubr
          632 28 hstemhm
          284 32 9 30 hintmask 01110000
          -13 callgsubr
          hintmask 11111000
          -7 -684 rmoveto
          -10 -26 rlineto
          28 -6 -96 callgsubr
          20 -50 12 vhcurveto
          endchar
        </CharString>
        <CharString name="uni021B">
          64 callsubr
          28 434 28 hstem
          232 138 callsubr
          vstem
          -90 callsubr
          132 -502 rmoveto
          -10 -26 rlineto
          28 -6 -96 callgsubr
          20 -50 12 vhcurveto
          endchar
        </CharString>
        <CharString name="uni0237">
          -234 28 656 28 hstem
          346 30 vstem
          -45 callgsubr
          endchar
        </CharString>
        <CharString name="uni0243">
          0 28 150 28 132 28 266 28 hstemhm
          120 32 322 32 10 32 hintmask 11111010
          152 28 rmoveto
          150 172 28 -172 132 140 vlineto
          107 callgsubr
          -140 604 rmoveto
          126 hlineto
          hintmask 11111110
          119 callsubr
          -120 hlineto
          hintmask 11111010
          236 -10 rmoveto
          hintmask 11111110
          95 callgsubr
          -172 -454 hlineto
          -78 -4 rlineto
          -24 78 -178 184 vlineto
          hintmask 11111010
          109 callsubr
          endchar
        </CharString>
        <CharString name="uni0250">
          -40 callgsubr
          -12 -20 hstemhm
          112 30 342 32 hintmask 11011000
          516 361 rmoveto
          91 -84 38 -84 -72 -76 -41 -45 -56 vhcurveto
          -2 hlineto
          hintmask 10111000
          -4 74 rlineto
          -26 -310 hlineto
          -96 49 -84 127 86 84 46 26 34 vhcurveto
          -16 24 rlineto
          -28 -37 -73 -40 -76 hhcurveto
          -116 -32 80 84 hvcurveto
          hintmask 11011000
          264 24 110 50 107 vvcurveto
          -32 -1 rmoveto
          -82 -84 -48 -258 -24 vhcurveto
          164 vlineto
          61 72 68 31 64 hhcurveto
          68 70 -28 -74 hvcurveto
          endchar
        </CharString>
        <CharString name="uni0251">
          -12 2 callgsubr
          358 30 hintmask 10101100
          -107 callsubr
          hintmask 01011100
          -67 callsubr
          hintmask 10101100
          -97 callsubr
          endchar
        </CharString>
        <CharString name="uni0252">
          -12 28 5 17 callsubr
          28 360 32 hintmask 10101100
          498 246 rmoveto
          -134 -80 -96 -110 -42 -64 20 56 -62 vhcurveto
          276 vlineto
          60 57 68 34 59 hhcurveto
          125 49 -94 -122 hvcurveto
          32 hmoveto
          148 -67 96 -137 -70 -71 -41 -45 -43 vhcurveto
          -2 hlineto
          hintmask 01011100
          -4 74 rlineto
          -26 -478 26 hlineto
          hintmask 10101100
          4 54 rlineto
          2 hlineto
          -40 50 64 -26 50 hhcurveto
          120 104 96 162 hvcurveto
          endchar
        </CharString>
        <CharString name="uni0254">
          -40 callgsubr
          hstem
          478 32 vstem
          510 238 rmoveto
          160 -110 92 -134 -91 -56 -36 -38 -39 vhcurveto
          20 -22 rlineto
          40 41 53 28 72 hhcurveto
          126 86 -92 -132 -132 -88 -90 -130 -70 -60 30 42 -44 hvcurveto
          -18 -22 rlineto
          -46 48 66 -32 78 hhcurveto
          142 108 92 158 hvcurveto
          endchar
        </CharString>
        <CharString name="uni0258">
          -33 callsubr
          hstem
          70 30 388 32 vstem
          520 238 rmoveto
          156 -96 96 -132 -118 -104 -82 -138 -10 0 -10 2 -12 vhcurveto
          416 hlineto
          -128 -88 -94 -132 -66 -53 22 32 -45 vhcurveto
          -14 -26 rlineto
          -27 42 51 -29 87 hhcurveto
          136 114 94 156 hvcurveto
          -420 28 rmoveto
          130 94 66 98 112 70 -76 -120 14 vhcurveto
          endchar
        </CharString>
        <CharString name="uni0259">
          -12 28 208 28 210 28 hstem
          80 30 388 32 vstem
          80 218 rmoveto
          -152 96 -78 120 144 90 96 156 160 -94 90 -146 -82 -56 -24 -26 -42 vhcurveto
          14 -26 rlineto
          28 45 53 20 66 hhcurveto
          141 69 -92 -118 hvcurveto
          -416 hlineto
          -2 -12 0 -12 -10 vvcurveto
          30 6 rmoveto
          388 hlineto
          -128 -8 -68 -80 -126 hhcurveto
          -104 -82 64 144 hvcurveto
          endchar
        </CharString>
        <CharString name="uni0259.sups">
          252 27 126 24 129 27 hstem
          160 30 218 32 vstem
          160 405 rmoveto
          -99 58 -54 79 85 58 64 103 106 -59 60 -88 -50 -35 -15 -18 -28 vhcurveto
          13 -24 rlineto
          18 28 30 12 39 hhcurveto
          76 41 -54 -75 1 hvcurveto
          -246 hlineto
          -2 -8 0 -8 -8 vvcurveto
          30 hmoveto
          218 hlineto
          -78 -6 -38 -48 -67 hhcurveto
          -62 -45 40 86 hvcurveto
          endchar
        </CharString>
        <CharString name="uni0261">
          -41 callgsubr
          40 callsubr
          hintmask 11101100
          -74 callgsubr
          hintmask 11011100
          526 -26 vlineto
          hintmask 11101100
          -102 callgsubr
          endchar
        </CharString>
        <CharString name="uni0265">
          -201 -21 210 28 462 -20 hstem
          90 139 callgsubr
          vstem
          490 34 callgsubr
          -346 hlineto
          -78 -74 -50 -38 -72 hhcurveto
          -101 -43 55 113 hvcurveto
          294 -30 -298 vlineto
          -131 57 -61 117 78 57 46 66 63 vhcurveto
          -2 -130 rlineto
          -192 30 vlineto
          endchar
        </CharString>
        <CharString name="uni026F">
          -32 callsubr
          hstemhm
          58 30 186 30 186 30 hintmask 10111100
          520 34 callgsubr
          -366 hlineto
          89 callsubr
          -366 vlineto
          89 callsubr
          -348 vlineto
          -96 37 -46 66 53 29 30 56 37 vhcurveto
          -58 13 30 -28 54 hhcurveto
          53 29 30 48 29 hvcurveto
          2 hlineto
          hintmask 01111100
          4 -66 117 callgsubr
        </CharString>
        <CharString name="uni0279">
          -12 30 3 -5 callsubr
          hstemhm
          400 30 hintmask 10110000
          430 34 callgsubr
          -306 hlineto
          -112 -70 -74 -42 -83 hhcurveto
          -38 -17 5 13 -36 hvcurveto
          -10 -28 rlineto
          -16 31 35 -4 31 hhcurveto
          98 79 56 76 52 hvcurveto
          2 hlineto
          hintmask 01110000
          4 -120 117 callgsubr
        </CharString>
        <CharString name="uni0287">
          0 28 434 28 hstem
          338 30 vstem
          368 302 rmoveto
          112 -38 76 -127 -44 -58 -12 -18 -43 vhcurveto
          10 -24 rlineto
          16 39 41 10 53 hhcurveto
          111 26 -60 -96 hvcurveto
          -278 -262 -28 262 -140 26 vlineto
          4 140 rlineto
          148 28 -148 hlineto
          endchar
        </CharString>
        <CharString name="uni028C">
          21 -21 446 32 hstem
          66 468 vstem
          314 34 callgsubr
          hlineto
          -218 -478 -22 callsubr
          140 310 22 48 19 46 19 42 rlinecurve
          4 hlineto
          19 -42 21 -46 22 -48 140 -310 rcurveline
          32 hlineto
          endchar
        </CharString>
        <CharString name="uni028D">
          102 callsubr
          hstem
          12 576 vstem
          458 478 rmoveto
          -42 hlineto
          -80 -310 -14 -46 -9 -46 -11 -46 rlinecurve
          -4 hlineto
          -13 46 -9 44 -12 46 -82 312 rcurveline
          -42 hlineto
          -128 -478 rlineto
          32 hlineto
          82 322 10 44 11 40 11 42 rlinecurve
          4 hlineto
          11 -42 11 -40 11 -44 83 -322 rcurveline
          42 hlineto
          83 322 11 44 11 40 11 42 rlinecurve
          4 hlineto
          9 -42 11 -40 11 -44 83 -322 rcurveline
          34 hlineto
          endchar
        </CharString>
        <CharString name="uni028E">
          21 -21 704 20 -20 30 hstemhm
          64 474 hintmask 10110000
          528 696 rmoveto
          hintmask 11010000
          10 28 rlineto
          hintmask 10110000
          6 -14 -22 4 -18 hhcurveto
          -92 -57 -80 -74 -25 hvcurveto
          -246 -580 -22 callsubr
          132 314 17 40 21 52 20 42 rlinecurve
          4 hlineto
          24 -42 25 -52 19 -40 148 -314 rcurveline
          32 hlineto
          -236 490 34 78 rlineto
          78 29 47 58 71 hhcurveto
          19 16 -4 -4 12 hvcurveto
          endchar
        </CharString>
        <CharString name="uni029E">
          -201 -21 243 -5 callsubr
          hstem
          440 30 vstem
          470 34 callgsubr
          -136 hlineto
          -148 -140 -220 276 rlineto
          -36 hlineto
          232 -294 -198 -184 rlineto
          40 hlineto
          326 302 rlineto
          4 -524 30 hlineto
          endchar
        </CharString>
        <CharString name="uni02BB">
          398 114 hstem
          230 38 vstem
          348 700 -52 callgsubr
          endchar
        </CharString>
        <CharString name="uni02BC">
          586 114 hstem
          328 38 vstem
          248 398 -83 callgsubr
          endchar
        </CharString>
        <CharString name="uni02BE">
          498 20 168 20 hstem
          355 26 vstem
          255 498 rmoveto
          76 -2 50 40 66 vvcurveto
          66 -50 40 -76 -2 vhcurveto
          -20 vlineto
          69 31 -34 -50 -50 -31 -34 -69 hvcurveto
          endchar
        </CharString>
        <CharString name="uni02BF">
          498 20 168 20 hstem
          227 26 vstem
          353 706 rmoveto
          -76 2 -50 -40 -66 vvcurveto
          -66 50 -40 76 2 vhcurveto
          20 vlineto
          -69 -31 34 50 50 31 34 69 hvcurveto
          endchar
        </CharString>
        <CharString name="uni02C8">
          412 130 callsubr
          286 412 -23 callgsubr
          17 284 rlineto
          -62 hlineto
          endchar
        </CharString>
        <CharString name="uni02C9">
          5 callgsubr
        </CharString>
        <CharString name="uni02CA">
          572 134 hstem
          246 132 vstem
          378 123 callgsubr
          endchar
        </CharString>
        <CharString name="uni02CB">
          572 134 hstem
          218 132 vstem
          322 572 -47 callgsubr
        </CharString>
        <CharString name="uni02CC">
          -244 130 callsubr
          314 40 rmoveto
          -28 hlineto
          -17 -284 rlineto
          62 hlineto
          endchar
        </CharString>
        <CharString name="uni0300">
          572 134 hstem
          220 132 vstem
          324 572 -47 callgsubr
        </CharString>
        <CharString name="uni0300.cap">
          710 104 hstem
          194 138 vstem
          302 710 15 callsubr
        </CharString>
        <CharString name="uni0301">
          572 134 hstem
          248 132 vstem
          380 123 callgsubr
          endchar
        </CharString>
</ttFont>
